G04*
G04 #@! TF.GenerationSoftware,Altium Limited,Altium Designer,18.1.11 (251)*
G04*
G04 Layer_Color=16711935*
%FSLAX25Y25*%
%MOIN*%
G70*
G01*
G75*
%ADD11C,0.00787*%
%ADD12C,0.00500*%
%ADD32C,0.00000*%
D11*
X599720Y80992D02*
G03*
X599720Y80992I-394J0D01*
G01*
X518863D02*
G03*
X518863Y80992I-394J0D01*
G01*
X438006D02*
G03*
X438006Y80992I-394J0D01*
G01*
X357149D02*
G03*
X357149Y80992I-394J0D01*
G01*
X276292D02*
G03*
X276292Y80992I-394J0D01*
G01*
X195435D02*
G03*
X195435Y80992I-394J0D01*
G01*
X114578D02*
G03*
X114578Y80992I-394J0D01*
G01*
X33720D02*
G03*
X33720Y80992I-394J0D01*
G01*
X599720Y117492D02*
G03*
X599720Y117492I-394J0D01*
G01*
X518935D02*
G03*
X518935Y117492I-394J0D01*
G01*
X438149D02*
G03*
X438149Y117492I-394J0D01*
G01*
X357363D02*
G03*
X357363Y117492I-394J0D01*
G01*
X276578D02*
G03*
X276578Y117492I-394J0D01*
G01*
X195792D02*
G03*
X195792Y117492I-394J0D01*
G01*
X115006D02*
G03*
X115006Y117492I-394J0D01*
G01*
X33720D02*
G03*
X33720Y117492I-394J0D01*
G01*
D12*
X608503Y64424D02*
G03*
X594397Y73584I-10260J-358D01*
G01*
Y55416D02*
G03*
X608503Y64576I3846J9518D01*
G01*
X527646Y64424D02*
G03*
X513540Y73584I-10260J-358D01*
G01*
Y55416D02*
G03*
X527646Y64576I3846J9518D01*
G01*
X446789Y64424D02*
G03*
X432683Y73584I-10260J-358D01*
G01*
Y55416D02*
G03*
X446789Y64576I3846J9518D01*
G01*
X365932Y64424D02*
G03*
X351826Y73584I-10260J-358D01*
G01*
Y55416D02*
G03*
X365932Y64576I3846J9518D01*
G01*
X285074Y64424D02*
G03*
X270969Y73584I-10260J-358D01*
G01*
Y55416D02*
G03*
X285074Y64576I3846J9518D01*
G01*
X204217Y64424D02*
G03*
X190112Y73584I-10260J-358D01*
G01*
Y55416D02*
G03*
X204217Y64576I3846J9518D01*
G01*
X123360Y64424D02*
G03*
X109255Y73584I-10260J-358D01*
G01*
Y55416D02*
G03*
X123360Y64576I3846J9518D01*
G01*
X42503Y64424D02*
G03*
X28397Y73584I-10260J-358D01*
G01*
Y55416D02*
G03*
X42503Y64576I3846J9518D01*
G01*
X608503Y100924D02*
G03*
X594397Y110084I-10260J-358D01*
G01*
Y91916D02*
G03*
X608503Y101076I3846J9518D01*
G01*
X527717Y100924D02*
G03*
X513612Y110084I-10260J-358D01*
G01*
Y91916D02*
G03*
X527717Y101076I3846J9518D01*
G01*
X446932Y100924D02*
G03*
X432826Y110084I-10260J-358D01*
G01*
Y91916D02*
G03*
X446932Y101076I3846J9518D01*
G01*
X366146Y100924D02*
G03*
X352040Y110084I-10260J-358D01*
G01*
Y91916D02*
G03*
X366146Y101076I3846J9518D01*
G01*
X285360Y100924D02*
G03*
X271255Y110084I-10260J-358D01*
G01*
Y91916D02*
G03*
X285360Y101076I3846J9518D01*
G01*
X204574Y100924D02*
G03*
X190469Y110084I-10260J-358D01*
G01*
Y91916D02*
G03*
X204574Y101076I3846J9518D01*
G01*
X123789Y100924D02*
G03*
X109683Y110084I-10260J-358D01*
G01*
Y91916D02*
G03*
X123789Y101076I3846J9518D01*
G01*
X42503Y100924D02*
G03*
X28397Y110084I-10260J-358D01*
G01*
Y91916D02*
G03*
X42503Y101076I3846J9518D01*
G01*
X594327Y55445D02*
Y73555D01*
X513470Y55445D02*
Y73555D01*
X432612Y55445D02*
Y73555D01*
X351755Y55445D02*
Y73555D01*
X270898Y55445D02*
Y73555D01*
X190041Y55445D02*
Y73555D01*
X109184Y55445D02*
Y73555D01*
X28327Y55445D02*
Y73555D01*
X594327Y91945D02*
Y110055D01*
X513541Y91945D02*
Y110055D01*
X432755Y91945D02*
Y110055D01*
X351970Y91945D02*
Y110055D01*
X271184Y91945D02*
Y110055D01*
X190398Y91945D02*
Y110055D01*
X109613Y91945D02*
Y110055D01*
X28327Y91945D02*
Y110055D01*
D32*
X706400Y195200D02*
G03*
X706400Y192800I0J-1200D01*
G01*
X570400Y263200D02*
G03*
X570400Y260800I0J-1200D01*
G01*
X446100Y352300D02*
G03*
X446100Y354700I0J1200D01*
G01*
X422400Y263200D02*
G03*
X422400Y260800I0J-1200D01*
G01*
X312600Y351300D02*
G03*
X312600Y353700I0J1200D01*
G01*
X45600Y351300D02*
G03*
X45600Y353700I0J1200D01*
G01*
X179100Y351300D02*
G03*
X179100Y353700I0J1200D01*
G01*
X126400Y263200D02*
G03*
X126400Y260800I0J-1200D01*
G01*
X274400Y263200D02*
G03*
X274400Y260800I0J-1200D01*
G01*
X629600Y181200D02*
X706400D01*
Y192800D01*
Y195200D01*
Y206800D01*
X629600D02*
X706400D01*
X629600Y181200D02*
Y206800D01*
X705200D02*
Y211200D01*
X700800D02*
X705200D01*
X700800Y206800D02*
Y211200D01*
Y206800D02*
X705200D01*
X695200D02*
Y211200D01*
X690800D02*
X695200D01*
X690800Y206800D02*
Y211200D01*
Y206800D02*
X695200D01*
X685200D02*
Y211200D01*
X680800D02*
X685200D01*
X680800Y206800D02*
Y211200D01*
Y206800D02*
X685200D01*
X675200D02*
Y211200D01*
X670800D02*
X675200D01*
X670800Y206800D02*
Y211200D01*
Y206800D02*
X675200D01*
X665200D02*
Y211200D01*
X660800D02*
X665200D01*
X660800Y206800D02*
Y211200D01*
Y206800D02*
X665200D01*
X655200D02*
Y211200D01*
X650800D02*
X655200D01*
X650800Y206800D02*
Y211200D01*
Y206800D02*
X655200D01*
X645200D02*
Y211200D01*
X640800D02*
X645200D01*
X640800Y206800D02*
Y211200D01*
Y206800D02*
X645200D01*
X635200D02*
Y211200D01*
X630800D02*
X635200D01*
X630800Y206800D02*
Y211200D01*
Y206800D02*
X635200D01*
X630800Y176800D02*
Y181200D01*
Y176800D02*
X635200D01*
Y181200D01*
X630800D02*
X635200D01*
X640800Y176800D02*
Y181200D01*
Y176800D02*
X645200D01*
Y181200D01*
X640800D02*
X645200D01*
X650800Y176800D02*
Y181200D01*
Y176800D02*
X655200D01*
Y181200D01*
X650800D02*
X655200D01*
X660800Y176800D02*
Y181200D01*
Y176800D02*
X665200D01*
Y181200D01*
X660800D02*
X665200D01*
X670800Y176800D02*
Y181200D01*
Y176800D02*
X675200D01*
Y181200D01*
X670800D02*
X675200D01*
X680800Y176800D02*
Y181200D01*
Y176800D02*
X685200D01*
Y181200D01*
X680800D02*
X685200D01*
X690800Y176800D02*
Y181200D01*
Y176800D02*
X695200D01*
Y181200D01*
X690800D02*
X695200D01*
X700800Y176800D02*
Y181200D01*
Y176800D02*
X705200D01*
Y181200D01*
X700800D02*
X705200D01*
X493600Y249200D02*
X570400D01*
Y260800D01*
Y263200D01*
Y274800D01*
X493600D02*
X570400D01*
X493600Y249200D02*
Y274800D01*
X569200D02*
Y279200D01*
X564800D02*
X569200D01*
X564800Y274800D02*
Y279200D01*
Y274800D02*
X569200D01*
X559200D02*
Y279200D01*
X554800D02*
X559200D01*
X554800Y274800D02*
Y279200D01*
Y274800D02*
X559200D01*
X549200D02*
Y279200D01*
X544800D02*
X549200D01*
X544800Y274800D02*
Y279200D01*
Y274800D02*
X549200D01*
X539200D02*
Y279200D01*
X534800D02*
X539200D01*
X534800Y274800D02*
Y279200D01*
Y274800D02*
X539200D01*
X529200D02*
Y279200D01*
X524800D02*
X529200D01*
X524800Y274800D02*
Y279200D01*
Y274800D02*
X529200D01*
X519200D02*
Y279200D01*
X514800D02*
X519200D01*
X514800Y274800D02*
Y279200D01*
Y274800D02*
X519200D01*
X509200D02*
Y279200D01*
X504800D02*
X509200D01*
X504800Y274800D02*
Y279200D01*
Y274800D02*
X509200D01*
X499200D02*
Y279200D01*
X494800D02*
X499200D01*
X494800Y274800D02*
Y279200D01*
Y274800D02*
X499200D01*
X494800Y244800D02*
Y249200D01*
Y244800D02*
X499200D01*
Y249200D01*
X494800D02*
X499200D01*
X504800Y244800D02*
Y249200D01*
Y244800D02*
X509200D01*
Y249200D01*
X504800D02*
X509200D01*
X514800Y244800D02*
Y249200D01*
Y244800D02*
X519200D01*
Y249200D01*
X514800D02*
X519200D01*
X524800Y244800D02*
Y249200D01*
Y244800D02*
X529200D01*
Y249200D01*
X524800D02*
X529200D01*
X534800Y244800D02*
Y249200D01*
Y244800D02*
X539200D01*
Y249200D01*
X534800D02*
X539200D01*
X544800Y244800D02*
Y249200D01*
Y244800D02*
X549200D01*
Y249200D01*
X544800D02*
X549200D01*
X554800Y244800D02*
Y249200D01*
Y244800D02*
X559200D01*
Y249200D01*
X554800D02*
X559200D01*
X564800Y244800D02*
Y249200D01*
Y244800D02*
X569200D01*
Y249200D01*
X564800D02*
X569200D01*
X446100Y366300D02*
X522900D01*
X446100Y354700D02*
Y366300D01*
Y352300D02*
Y354700D01*
Y340700D02*
Y352300D01*
Y340700D02*
X522900D01*
Y366300D01*
X447300Y336300D02*
Y340700D01*
Y336300D02*
X451700D01*
Y340700D01*
X447300D02*
X451700D01*
X457300Y336300D02*
Y340700D01*
Y336300D02*
X461700D01*
Y340700D01*
X457300D02*
X461700D01*
X467300Y336300D02*
Y340700D01*
Y336300D02*
X471700D01*
Y340700D01*
X467300D02*
X471700D01*
X477300Y336300D02*
Y340700D01*
Y336300D02*
X481700D01*
Y340700D01*
X477300D02*
X481700D01*
X487300Y336300D02*
Y340700D01*
Y336300D02*
X491700D01*
Y340700D01*
X487300D02*
X491700D01*
X497300Y336300D02*
Y340700D01*
Y336300D02*
X501700D01*
Y340700D01*
X497300D02*
X501700D01*
X507300Y336300D02*
Y340700D01*
Y336300D02*
X511700D01*
Y340700D01*
X507300D02*
X511700D01*
X517300Y336300D02*
Y340700D01*
Y336300D02*
X521700D01*
Y340700D01*
X517300D02*
X521700D01*
Y366300D02*
Y370700D01*
X517300D02*
X521700D01*
X517300Y366300D02*
Y370700D01*
Y366300D02*
X521700D01*
X511700D02*
Y370700D01*
X507300D02*
X511700D01*
X507300Y366300D02*
Y370700D01*
Y366300D02*
X511700D01*
X501700D02*
Y370700D01*
X497300D02*
X501700D01*
X497300Y366300D02*
Y370700D01*
Y366300D02*
X501700D01*
X491700D02*
Y370700D01*
X487300D02*
X491700D01*
X487300Y366300D02*
Y370700D01*
Y366300D02*
X491700D01*
X481700D02*
Y370700D01*
X477300D02*
X481700D01*
X477300Y366300D02*
Y370700D01*
Y366300D02*
X481700D01*
X471700D02*
Y370700D01*
X467300D02*
X471700D01*
X467300Y366300D02*
Y370700D01*
Y366300D02*
X471700D01*
X461700D02*
Y370700D01*
X457300D02*
X461700D01*
X457300Y366300D02*
Y370700D01*
Y366300D02*
X461700D01*
X451700D02*
Y370700D01*
X447300D02*
X451700D01*
X447300Y366300D02*
Y370700D01*
Y366300D02*
X451700D01*
X345600Y249200D02*
X422400D01*
Y260800D01*
Y263200D01*
Y274800D01*
X345600D02*
X422400D01*
X345600Y249200D02*
Y274800D01*
X421200D02*
Y279200D01*
X416800D02*
X421200D01*
X416800Y274800D02*
Y279200D01*
Y274800D02*
X421200D01*
X411200D02*
Y279200D01*
X406800D02*
X411200D01*
X406800Y274800D02*
Y279200D01*
Y274800D02*
X411200D01*
X401200D02*
Y279200D01*
X396800D02*
X401200D01*
X396800Y274800D02*
Y279200D01*
Y274800D02*
X401200D01*
X391200D02*
Y279200D01*
X386800D02*
X391200D01*
X386800Y274800D02*
Y279200D01*
Y274800D02*
X391200D01*
X381200D02*
Y279200D01*
X376800D02*
X381200D01*
X376800Y274800D02*
Y279200D01*
Y274800D02*
X381200D01*
X371200D02*
Y279200D01*
X366800D02*
X371200D01*
X366800Y274800D02*
Y279200D01*
Y274800D02*
X371200D01*
X361200D02*
Y279200D01*
X356800D02*
X361200D01*
X356800Y274800D02*
Y279200D01*
Y274800D02*
X361200D01*
X351200D02*
Y279200D01*
X346800D02*
X351200D01*
X346800Y274800D02*
Y279200D01*
Y274800D02*
X351200D01*
X346800Y244800D02*
Y249200D01*
Y244800D02*
X351200D01*
Y249200D01*
X346800D02*
X351200D01*
X356800Y244800D02*
Y249200D01*
Y244800D02*
X361200D01*
Y249200D01*
X356800D02*
X361200D01*
X366800Y244800D02*
Y249200D01*
Y244800D02*
X371200D01*
Y249200D01*
X366800D02*
X371200D01*
X376800Y244800D02*
Y249200D01*
Y244800D02*
X381200D01*
Y249200D01*
X376800D02*
X381200D01*
X386800Y244800D02*
Y249200D01*
Y244800D02*
X391200D01*
Y249200D01*
X386800D02*
X391200D01*
X396800Y244800D02*
Y249200D01*
Y244800D02*
X401200D01*
Y249200D01*
X396800D02*
X401200D01*
X406800Y244800D02*
Y249200D01*
Y244800D02*
X411200D01*
Y249200D01*
X406800D02*
X411200D01*
X416800Y244800D02*
Y249200D01*
Y244800D02*
X421200D01*
Y249200D01*
X416800D02*
X421200D01*
X312600Y365300D02*
X389400D01*
X312600Y353700D02*
Y365300D01*
Y351300D02*
Y353700D01*
Y339700D02*
Y351300D01*
Y339700D02*
X389400D01*
Y365300D01*
X313800Y335300D02*
Y339700D01*
Y335300D02*
X318200D01*
Y339700D01*
X313800D02*
X318200D01*
X323800Y335300D02*
Y339700D01*
Y335300D02*
X328200D01*
Y339700D01*
X323800D02*
X328200D01*
X333800Y335300D02*
Y339700D01*
Y335300D02*
X338200D01*
Y339700D01*
X333800D02*
X338200D01*
X343800Y335300D02*
Y339700D01*
Y335300D02*
X348200D01*
Y339700D01*
X343800D02*
X348200D01*
X353800Y335300D02*
Y339700D01*
Y335300D02*
X358200D01*
Y339700D01*
X353800D02*
X358200D01*
X363800Y335300D02*
Y339700D01*
Y335300D02*
X368200D01*
Y339700D01*
X363800D02*
X368200D01*
X373800Y335300D02*
Y339700D01*
Y335300D02*
X378200D01*
Y339700D01*
X373800D02*
X378200D01*
X383800Y335300D02*
Y339700D01*
Y335300D02*
X388200D01*
Y339700D01*
X383800D02*
X388200D01*
Y365300D02*
Y369700D01*
X383800D02*
X388200D01*
X383800Y365300D02*
Y369700D01*
Y365300D02*
X388200D01*
X378200D02*
Y369700D01*
X373800D02*
X378200D01*
X373800Y365300D02*
Y369700D01*
Y365300D02*
X378200D01*
X368200D02*
Y369700D01*
X363800D02*
X368200D01*
X363800Y365300D02*
Y369700D01*
Y365300D02*
X368200D01*
X358200D02*
Y369700D01*
X353800D02*
X358200D01*
X353800Y365300D02*
Y369700D01*
Y365300D02*
X358200D01*
X348200D02*
Y369700D01*
X343800D02*
X348200D01*
X343800Y365300D02*
Y369700D01*
Y365300D02*
X348200D01*
X338200D02*
Y369700D01*
X333800D02*
X338200D01*
X333800Y365300D02*
Y369700D01*
Y365300D02*
X338200D01*
X328200D02*
Y369700D01*
X323800D02*
X328200D01*
X323800Y365300D02*
Y369700D01*
Y365300D02*
X328200D01*
X318200D02*
Y369700D01*
X313800D02*
X318200D01*
X313800Y365300D02*
Y369700D01*
Y365300D02*
X318200D01*
X45600D02*
X122400D01*
X45600Y353700D02*
Y365300D01*
Y351300D02*
Y353700D01*
Y339700D02*
Y351300D01*
Y339700D02*
X122400D01*
Y365300D01*
X46800Y335300D02*
Y339700D01*
Y335300D02*
X51200D01*
Y339700D01*
X46800D02*
X51200D01*
X56800Y335300D02*
Y339700D01*
Y335300D02*
X61200D01*
Y339700D01*
X56800D02*
X61200D01*
X66800Y335300D02*
Y339700D01*
Y335300D02*
X71200D01*
Y339700D01*
X66800D02*
X71200D01*
X76800Y335300D02*
Y339700D01*
Y335300D02*
X81200D01*
Y339700D01*
X76800D02*
X81200D01*
X86800Y335300D02*
Y339700D01*
Y335300D02*
X91200D01*
Y339700D01*
X86800D02*
X91200D01*
X96800Y335300D02*
Y339700D01*
Y335300D02*
X101200D01*
Y339700D01*
X96800D02*
X101200D01*
X106800Y335300D02*
Y339700D01*
Y335300D02*
X111200D01*
Y339700D01*
X106800D02*
X111200D01*
X116800Y335300D02*
Y339700D01*
Y335300D02*
X121200D01*
Y339700D01*
X116800D02*
X121200D01*
Y365300D02*
Y369700D01*
X116800D02*
X121200D01*
X116800Y365300D02*
Y369700D01*
Y365300D02*
X121200D01*
X111200D02*
Y369700D01*
X106800D02*
X111200D01*
X106800Y365300D02*
Y369700D01*
Y365300D02*
X111200D01*
X101200D02*
Y369700D01*
X96800D02*
X101200D01*
X96800Y365300D02*
Y369700D01*
Y365300D02*
X101200D01*
X91200D02*
Y369700D01*
X86800D02*
X91200D01*
X86800Y365300D02*
Y369700D01*
Y365300D02*
X91200D01*
X81200D02*
Y369700D01*
X76800D02*
X81200D01*
X76800Y365300D02*
Y369700D01*
Y365300D02*
X81200D01*
X71200D02*
Y369700D01*
X66800D02*
X71200D01*
X66800Y365300D02*
Y369700D01*
Y365300D02*
X71200D01*
X61200D02*
Y369700D01*
X56800D02*
X61200D01*
X56800Y365300D02*
Y369700D01*
Y365300D02*
X61200D01*
X51200D02*
Y369700D01*
X46800D02*
X51200D01*
X46800Y365300D02*
Y369700D01*
Y365300D02*
X51200D01*
X179100D02*
X255900D01*
X179100Y353700D02*
Y365300D01*
Y351300D02*
Y353700D01*
Y339700D02*
Y351300D01*
Y339700D02*
X255900D01*
Y365300D01*
X180300Y335300D02*
Y339700D01*
Y335300D02*
X184700D01*
Y339700D01*
X180300D02*
X184700D01*
X190300Y335300D02*
Y339700D01*
Y335300D02*
X194700D01*
Y339700D01*
X190300D02*
X194700D01*
X200300Y335300D02*
Y339700D01*
Y335300D02*
X204700D01*
Y339700D01*
X200300D02*
X204700D01*
X210300Y335300D02*
Y339700D01*
Y335300D02*
X214700D01*
Y339700D01*
X210300D02*
X214700D01*
X220300Y335300D02*
Y339700D01*
Y335300D02*
X224700D01*
Y339700D01*
X220300D02*
X224700D01*
X230300Y335300D02*
Y339700D01*
Y335300D02*
X234700D01*
Y339700D01*
X230300D02*
X234700D01*
X240300Y335300D02*
Y339700D01*
Y335300D02*
X244700D01*
Y339700D01*
X240300D02*
X244700D01*
X250300Y335300D02*
Y339700D01*
Y335300D02*
X254700D01*
Y339700D01*
X250300D02*
X254700D01*
Y365300D02*
Y369700D01*
X250300D02*
X254700D01*
X250300Y365300D02*
Y369700D01*
Y365300D02*
X254700D01*
X244700D02*
Y369700D01*
X240300D02*
X244700D01*
X240300Y365300D02*
Y369700D01*
Y365300D02*
X244700D01*
X234700D02*
Y369700D01*
X230300D02*
X234700D01*
X230300Y365300D02*
Y369700D01*
Y365300D02*
X234700D01*
X224700D02*
Y369700D01*
X220300D02*
X224700D01*
X220300Y365300D02*
Y369700D01*
Y365300D02*
X224700D01*
X214700D02*
Y369700D01*
X210300D02*
X214700D01*
X210300Y365300D02*
Y369700D01*
Y365300D02*
X214700D01*
X204700D02*
Y369700D01*
X200300D02*
X204700D01*
X200300Y365300D02*
Y369700D01*
Y365300D02*
X204700D01*
X194700D02*
Y369700D01*
X190300D02*
X194700D01*
X190300Y365300D02*
Y369700D01*
Y365300D02*
X194700D01*
X184700D02*
Y369700D01*
X180300D02*
X184700D01*
X180300Y365300D02*
Y369700D01*
Y365300D02*
X184700D01*
X49600Y249200D02*
X126400D01*
Y260800D01*
Y263200D01*
Y274800D01*
X49600D02*
X126400D01*
X49600Y249200D02*
Y274800D01*
X125200D02*
Y279200D01*
X120800D02*
X125200D01*
X120800Y274800D02*
Y279200D01*
Y274800D02*
X125200D01*
X115200D02*
Y279200D01*
X110800D02*
X115200D01*
X110800Y274800D02*
Y279200D01*
Y274800D02*
X115200D01*
X105200D02*
Y279200D01*
X100800D02*
X105200D01*
X100800Y274800D02*
Y279200D01*
Y274800D02*
X105200D01*
X95200D02*
Y279200D01*
X90800D02*
X95200D01*
X90800Y274800D02*
Y279200D01*
Y274800D02*
X95200D01*
X85200D02*
Y279200D01*
X80800D02*
X85200D01*
X80800Y274800D02*
Y279200D01*
Y274800D02*
X85200D01*
X75200D02*
Y279200D01*
X70800D02*
X75200D01*
X70800Y274800D02*
Y279200D01*
Y274800D02*
X75200D01*
X65200D02*
Y279200D01*
X60800D02*
X65200D01*
X60800Y274800D02*
Y279200D01*
Y274800D02*
X65200D01*
X55200D02*
Y279200D01*
X50800D02*
X55200D01*
X50800Y274800D02*
Y279200D01*
Y274800D02*
X55200D01*
X50800Y244800D02*
Y249200D01*
Y244800D02*
X55200D01*
Y249200D01*
X50800D02*
X55200D01*
X60800Y244800D02*
Y249200D01*
Y244800D02*
X65200D01*
Y249200D01*
X60800D02*
X65200D01*
X70800Y244800D02*
Y249200D01*
Y244800D02*
X75200D01*
Y249200D01*
X70800D02*
X75200D01*
X80800Y244800D02*
Y249200D01*
Y244800D02*
X85200D01*
Y249200D01*
X80800D02*
X85200D01*
X90800Y244800D02*
Y249200D01*
Y244800D02*
X95200D01*
Y249200D01*
X90800D02*
X95200D01*
X100800Y244800D02*
Y249200D01*
Y244800D02*
X105200D01*
Y249200D01*
X100800D02*
X105200D01*
X110800Y244800D02*
Y249200D01*
Y244800D02*
X115200D01*
Y249200D01*
X110800D02*
X115200D01*
X120800Y244800D02*
Y249200D01*
Y244800D02*
X125200D01*
Y249200D01*
X120800D02*
X125200D01*
X197600Y249200D02*
X274400D01*
Y260800D01*
Y263200D01*
Y274800D01*
X197600D02*
X274400D01*
X197600Y249200D02*
Y274800D01*
X273200D02*
Y279200D01*
X268800D02*
X273200D01*
X268800Y274800D02*
Y279200D01*
Y274800D02*
X273200D01*
X263200D02*
Y279200D01*
X258800D02*
X263200D01*
X258800Y274800D02*
Y279200D01*
Y274800D02*
X263200D01*
X253200D02*
Y279200D01*
X248800D02*
X253200D01*
X248800Y274800D02*
Y279200D01*
Y274800D02*
X253200D01*
X243200D02*
Y279200D01*
X238800D02*
X243200D01*
X238800Y274800D02*
Y279200D01*
Y274800D02*
X243200D01*
X233200D02*
Y279200D01*
X228800D02*
X233200D01*
X228800Y274800D02*
Y279200D01*
Y274800D02*
X233200D01*
X223200D02*
Y279200D01*
X218800D02*
X223200D01*
X218800Y274800D02*
Y279200D01*
Y274800D02*
X223200D01*
X213200D02*
Y279200D01*
X208800D02*
X213200D01*
X208800Y274800D02*
Y279200D01*
Y274800D02*
X213200D01*
X203200D02*
Y279200D01*
X198800D02*
X203200D01*
X198800Y274800D02*
Y279200D01*
Y274800D02*
X203200D01*
X198800Y244800D02*
Y249200D01*
Y244800D02*
X203200D01*
Y249200D01*
X198800D02*
X203200D01*
X208800Y244800D02*
Y249200D01*
Y244800D02*
X213200D01*
Y249200D01*
X208800D02*
X213200D01*
X218800Y244800D02*
Y249200D01*
Y244800D02*
X223200D01*
Y249200D01*
X218800D02*
X223200D01*
X228800Y244800D02*
Y249200D01*
Y244800D02*
X233200D01*
Y249200D01*
X228800D02*
X233200D01*
X238800Y244800D02*
Y249200D01*
Y244800D02*
X243200D01*
Y249200D01*
X238800D02*
X243200D01*
X248800Y244800D02*
Y249200D01*
Y244800D02*
X253200D01*
Y249200D01*
X248800D02*
X253200D01*
X258800Y244800D02*
Y249200D01*
Y244800D02*
X263200D01*
Y249200D01*
X258800D02*
X263200D01*
X268800Y244800D02*
Y249200D01*
Y244800D02*
X273200D01*
Y249200D01*
X268800D02*
X273200D01*
M02*
