G04*
G04 #@! TF.GenerationSoftware,Altium Limited,Altium Designer,18.1.11 (251)*
G04*
G04 Layer_Color=65535*
%FSLAX25Y25*%
%MOIN*%
G70*
G01*
G75*
%ADD10C,0.00600*%
%ADD11C,0.00787*%
%ADD12C,0.00500*%
D10*
X706400Y195200D02*
G03*
X706400Y192800I0J-1200D01*
G01*
X570400Y263200D02*
G03*
X570400Y260800I0J-1200D01*
G01*
X446100Y352300D02*
G03*
X446100Y354700I0J1200D01*
G01*
X422400Y263200D02*
G03*
X422400Y260800I0J-1200D01*
G01*
X312600Y351300D02*
G03*
X312600Y353700I0J1200D01*
G01*
X45600Y351300D02*
G03*
X45600Y353700I0J1200D01*
G01*
X179100Y351300D02*
G03*
X179100Y353700I0J1200D01*
G01*
X126400Y263200D02*
G03*
X126400Y260800I0J-1200D01*
G01*
X274400Y263200D02*
G03*
X274400Y260800I0J-1200D01*
G01*
X706400Y184200D02*
Y192800D01*
Y195200D01*
Y205100D01*
X629600Y182900D02*
Y205100D01*
X570400Y252200D02*
Y260800D01*
Y263200D01*
Y273100D01*
X493600Y250900D02*
Y273100D01*
X446100Y354700D02*
Y363300D01*
Y352300D02*
Y354700D01*
Y342400D02*
Y352300D01*
X522900Y342400D02*
Y364600D01*
X422400Y252200D02*
Y260800D01*
Y263200D01*
Y273100D01*
X345600Y250900D02*
Y273100D01*
X312600Y353700D02*
Y362300D01*
Y351300D02*
Y353700D01*
Y341400D02*
Y351300D01*
X389400Y341400D02*
Y363600D01*
X45600Y353700D02*
Y362300D01*
Y351300D02*
Y353700D01*
Y341400D02*
Y351300D01*
X122400Y341400D02*
Y363600D01*
X179100Y353700D02*
Y362300D01*
Y351300D02*
Y353700D01*
Y341400D02*
Y351300D01*
X255900Y341400D02*
Y363600D01*
X126400Y252200D02*
Y260800D01*
Y263200D01*
Y273100D01*
X49600Y250900D02*
Y273100D01*
X274400Y252200D02*
Y260800D01*
Y263200D01*
Y273100D01*
X197600Y250900D02*
Y273100D01*
D11*
X599720Y80992D02*
G03*
X599720Y80992I-394J0D01*
G01*
X518863D02*
G03*
X518863Y80992I-394J0D01*
G01*
X438006D02*
G03*
X438006Y80992I-394J0D01*
G01*
X357149D02*
G03*
X357149Y80992I-394J0D01*
G01*
X276292D02*
G03*
X276292Y80992I-394J0D01*
G01*
X195435D02*
G03*
X195435Y80992I-394J0D01*
G01*
X114578D02*
G03*
X114578Y80992I-394J0D01*
G01*
X33720D02*
G03*
X33720Y80992I-394J0D01*
G01*
X599720Y117492D02*
G03*
X599720Y117492I-394J0D01*
G01*
X518935D02*
G03*
X518935Y117492I-394J0D01*
G01*
X438149D02*
G03*
X438149Y117492I-394J0D01*
G01*
X357363D02*
G03*
X357363Y117492I-394J0D01*
G01*
X276578D02*
G03*
X276578Y117492I-394J0D01*
G01*
X195792D02*
G03*
X195792Y117492I-394J0D01*
G01*
X115006D02*
G03*
X115006Y117492I-394J0D01*
G01*
X33720D02*
G03*
X33720Y117492I-394J0D01*
G01*
X501000Y147500D02*
Y157500D01*
X581000D01*
Y147500D02*
Y157500D01*
X501000Y147500D02*
X581000D01*
X581500Y429500D02*
Y439500D01*
X501500Y429500D02*
X581500D01*
X501500D02*
Y439500D01*
X581500D01*
X343833Y147500D02*
Y157500D01*
X423833D01*
Y147500D02*
Y157500D01*
X343833Y147500D02*
X423833D01*
X419000Y429500D02*
Y439500D01*
X339000Y429500D02*
X419000D01*
X339000D02*
Y439500D01*
X419000D01*
X186667Y147500D02*
Y157500D01*
X266667D01*
Y147500D02*
Y157500D01*
X186667Y147500D02*
X266667D01*
X256500Y429500D02*
Y439500D01*
X176500Y429500D02*
X256500D01*
X176500D02*
Y439500D01*
X256500D01*
X29500Y147500D02*
Y157500D01*
X109500D01*
Y147500D02*
Y157500D01*
X29500Y147500D02*
X109500D01*
X94000Y429500D02*
Y439500D01*
X14000Y429500D02*
X94000D01*
X14000D02*
Y439500D01*
X94000D01*
X449500Y185000D02*
X452500D01*
Y205000D01*
X446500D02*
X452500D01*
X446500Y185000D02*
Y205000D01*
Y185000D02*
X449500D01*
Y205000D02*
Y205900D01*
Y184100D02*
Y185000D01*
X467500D02*
X470500D01*
Y205000D01*
X464500D02*
X470500D01*
X464500Y185000D02*
Y205000D01*
Y185000D02*
X467500D01*
Y205000D02*
Y205900D01*
Y184100D02*
Y185000D01*
X485500D02*
X488500D01*
Y205000D01*
X482500D02*
X488500D01*
X482500Y185000D02*
Y205000D01*
Y185000D02*
X485500D01*
Y205000D02*
Y205900D01*
Y184100D02*
Y185000D01*
X503500D02*
X506500D01*
Y205000D01*
X500500D02*
X506500D01*
X500500Y185000D02*
Y205000D01*
Y185000D02*
X503500D01*
Y205000D02*
Y205900D01*
Y184100D02*
Y185000D01*
X521500D02*
X524500D01*
Y205000D01*
X518500D02*
X524500D01*
X518500Y185000D02*
Y205000D01*
Y185000D02*
X521500D01*
Y205000D02*
Y205900D01*
Y184100D02*
Y185000D01*
X539500D02*
X542500D01*
Y205000D01*
X536500D02*
X542500D01*
X536500Y185000D02*
Y205000D01*
Y185000D02*
X539500D01*
Y205000D02*
Y205900D01*
Y184100D02*
Y185000D01*
X557500D02*
X560500D01*
Y205000D01*
X554500D02*
X560500D01*
X554500Y185000D02*
Y205000D01*
Y185000D02*
X557500D01*
Y205000D02*
Y205900D01*
Y184100D02*
Y185000D01*
X575500D02*
X578500D01*
Y205000D01*
X572500D02*
X578500D01*
X572500Y185000D02*
Y205000D01*
Y185000D02*
X575500D01*
Y205000D02*
Y205900D01*
Y184100D02*
Y185000D01*
X573000Y407500D02*
X576000D01*
X573000Y387500D02*
Y407500D01*
Y387500D02*
X579000D01*
Y407500D01*
X576000D02*
X579000D01*
X576000Y386600D02*
Y387500D01*
Y407500D02*
Y408400D01*
X555000Y407500D02*
X558000D01*
X555000Y387500D02*
Y407500D01*
Y387500D02*
X561000D01*
Y407500D01*
X558000D02*
X561000D01*
X558000Y386600D02*
Y387500D01*
Y407500D02*
Y408400D01*
X537000Y407500D02*
X540000D01*
X537000Y387500D02*
Y407500D01*
Y387500D02*
X543000D01*
Y407500D01*
X540000D02*
X543000D01*
X540000Y386600D02*
Y387500D01*
Y407500D02*
Y408400D01*
X519000Y407500D02*
X522000D01*
X519000Y387500D02*
Y407500D01*
Y387500D02*
X525000D01*
Y407500D01*
X522000D02*
X525000D01*
X522000Y386600D02*
Y387500D01*
Y407500D02*
Y408400D01*
X501000Y407500D02*
X504000D01*
X501000Y387500D02*
Y407500D01*
Y387500D02*
X507000D01*
Y407500D01*
X504000D02*
X507000D01*
X504000Y386600D02*
Y387500D01*
Y407500D02*
Y408400D01*
X483000Y407500D02*
X486000D01*
X483000Y387500D02*
Y407500D01*
Y387500D02*
X489000D01*
Y407500D01*
X486000D02*
X489000D01*
X486000Y386600D02*
Y387500D01*
Y407500D02*
Y408400D01*
X465000Y407500D02*
X468000D01*
X465000Y387500D02*
Y407500D01*
Y387500D02*
X471000D01*
Y407500D01*
X468000D02*
X471000D01*
X468000Y386600D02*
Y387500D01*
Y407500D02*
Y408400D01*
X447000Y407500D02*
X450000D01*
X447000Y387500D02*
Y407500D01*
Y387500D02*
X453000D01*
Y407500D01*
X450000D02*
X453000D01*
X450000Y386600D02*
Y387500D01*
Y407500D02*
Y408400D01*
X305500Y185000D02*
X308500D01*
Y205000D01*
X302500D02*
X308500D01*
X302500Y185000D02*
Y205000D01*
Y185000D02*
X305500D01*
Y205000D02*
Y205900D01*
Y184100D02*
Y185000D01*
X323500D02*
X326500D01*
Y205000D01*
X320500D02*
X326500D01*
X320500Y185000D02*
Y205000D01*
Y185000D02*
X323500D01*
Y205000D02*
Y205900D01*
Y184100D02*
Y185000D01*
X341500D02*
X344500D01*
Y205000D01*
X338500D02*
X344500D01*
X338500Y185000D02*
Y205000D01*
Y185000D02*
X341500D01*
Y205000D02*
Y205900D01*
Y184100D02*
Y185000D01*
X359500D02*
X362500D01*
Y205000D01*
X356500D02*
X362500D01*
X356500Y185000D02*
Y205000D01*
Y185000D02*
X359500D01*
Y205000D02*
Y205900D01*
Y184100D02*
Y185000D01*
X377500D02*
X380500D01*
Y205000D01*
X374500D02*
X380500D01*
X374500Y185000D02*
Y205000D01*
Y185000D02*
X377500D01*
Y205000D02*
Y205900D01*
Y184100D02*
Y185000D01*
X395500D02*
X398500D01*
Y205000D01*
X392500D02*
X398500D01*
X392500Y185000D02*
Y205000D01*
Y185000D02*
X395500D01*
Y205000D02*
Y205900D01*
Y184100D02*
Y185000D01*
X413500D02*
X416500D01*
Y205000D01*
X410500D02*
X416500D01*
X410500Y185000D02*
Y205000D01*
Y185000D02*
X413500D01*
Y205000D02*
Y205900D01*
Y184100D02*
Y185000D01*
X431500D02*
X434500D01*
Y205000D01*
X428500D02*
X434500D01*
X428500Y185000D02*
Y205000D01*
Y185000D02*
X431500D01*
Y205000D02*
Y205900D01*
Y184100D02*
Y185000D01*
X429000Y407500D02*
X432000D01*
X429000Y387500D02*
Y407500D01*
Y387500D02*
X435000D01*
Y407500D01*
X432000D02*
X435000D01*
X432000Y386600D02*
Y387500D01*
Y407500D02*
Y408400D01*
X411000Y407500D02*
X414000D01*
X411000Y387500D02*
Y407500D01*
Y387500D02*
X417000D01*
Y407500D01*
X414000D02*
X417000D01*
X414000Y386600D02*
Y387500D01*
Y407500D02*
Y408400D01*
X393000Y407500D02*
X396000D01*
X393000Y387500D02*
Y407500D01*
Y387500D02*
X399000D01*
Y407500D01*
X396000D02*
X399000D01*
X396000Y386600D02*
Y387500D01*
Y407500D02*
Y408400D01*
X375000Y407500D02*
X378000D01*
X375000Y387500D02*
Y407500D01*
Y387500D02*
X381000D01*
Y407500D01*
X378000D02*
X381000D01*
X378000Y386600D02*
Y387500D01*
Y407500D02*
Y408400D01*
X357000Y407500D02*
X360000D01*
X357000Y387500D02*
Y407500D01*
Y387500D02*
X363000D01*
Y407500D01*
X360000D02*
X363000D01*
X360000Y386600D02*
Y387500D01*
Y407500D02*
Y408400D01*
X339000Y407500D02*
X342000D01*
X339000Y387500D02*
Y407500D01*
Y387500D02*
X345000D01*
Y407500D01*
X342000D02*
X345000D01*
X342000Y386600D02*
Y387500D01*
Y407500D02*
Y408400D01*
X321000Y407500D02*
X324000D01*
X321000Y387500D02*
Y407500D01*
Y387500D02*
X327000D01*
Y407500D01*
X324000D02*
X327000D01*
X324000Y386600D02*
Y387500D01*
Y407500D02*
Y408400D01*
X303000Y407500D02*
X306000D01*
X303000Y387500D02*
Y407500D01*
Y387500D02*
X309000D01*
Y407500D01*
X306000D02*
X309000D01*
X306000Y386600D02*
Y387500D01*
Y407500D02*
Y408400D01*
X161500Y185000D02*
X164500D01*
Y205000D01*
X158500D02*
X164500D01*
X158500Y185000D02*
Y205000D01*
Y185000D02*
X161500D01*
Y205000D02*
Y205900D01*
Y184100D02*
Y185000D01*
X179500D02*
X182500D01*
Y205000D01*
X176500D02*
X182500D01*
X176500Y185000D02*
Y205000D01*
Y185000D02*
X179500D01*
Y205000D02*
Y205900D01*
Y184100D02*
Y185000D01*
X197500D02*
X200500D01*
Y205000D01*
X194500D02*
X200500D01*
X194500Y185000D02*
Y205000D01*
Y185000D02*
X197500D01*
Y205000D02*
Y205900D01*
Y184100D02*
Y185000D01*
X215500D02*
X218500D01*
Y205000D01*
X212500D02*
X218500D01*
X212500Y185000D02*
Y205000D01*
Y185000D02*
X215500D01*
Y205000D02*
Y205900D01*
Y184100D02*
Y185000D01*
X233500D02*
X236500D01*
Y205000D01*
X230500D02*
X236500D01*
X230500Y185000D02*
Y205000D01*
Y185000D02*
X233500D01*
Y205000D02*
Y205900D01*
Y184100D02*
Y185000D01*
X251500D02*
X254500D01*
Y205000D01*
X248500D02*
X254500D01*
X248500Y185000D02*
Y205000D01*
Y185000D02*
X251500D01*
Y205000D02*
Y205900D01*
Y184100D02*
Y185000D01*
X269500D02*
X272500D01*
Y205000D01*
X266500D02*
X272500D01*
X266500Y185000D02*
Y205000D01*
Y185000D02*
X269500D01*
Y205000D02*
Y205900D01*
Y184100D02*
Y185000D01*
X287500D02*
X290500D01*
Y205000D01*
X284500D02*
X290500D01*
X284500Y185000D02*
Y205000D01*
Y185000D02*
X287500D01*
Y205000D02*
Y205900D01*
Y184100D02*
Y185000D01*
X285000Y407500D02*
X288000D01*
X285000Y387500D02*
Y407500D01*
Y387500D02*
X291000D01*
Y407500D01*
X288000D02*
X291000D01*
X288000Y386600D02*
Y387500D01*
Y407500D02*
Y408400D01*
X267000Y407500D02*
X270000D01*
X267000Y387500D02*
Y407500D01*
Y387500D02*
X273000D01*
Y407500D01*
X270000D02*
X273000D01*
X270000Y386600D02*
Y387500D01*
Y407500D02*
Y408400D01*
X249000Y407500D02*
X252000D01*
X249000Y387500D02*
Y407500D01*
Y387500D02*
X255000D01*
Y407500D01*
X252000D02*
X255000D01*
X252000Y386600D02*
Y387500D01*
Y407500D02*
Y408400D01*
X231000Y407500D02*
X234000D01*
X231000Y387500D02*
Y407500D01*
Y387500D02*
X237000D01*
Y407500D01*
X234000D02*
X237000D01*
X234000Y386600D02*
Y387500D01*
Y407500D02*
Y408400D01*
X213000Y407500D02*
X216000D01*
X213000Y387500D02*
Y407500D01*
Y387500D02*
X219000D01*
Y407500D01*
X216000D02*
X219000D01*
X216000Y386600D02*
Y387500D01*
Y407500D02*
Y408400D01*
X195000Y407500D02*
X198000D01*
X195000Y387500D02*
Y407500D01*
Y387500D02*
X201000D01*
Y407500D01*
X198000D02*
X201000D01*
X198000Y386600D02*
Y387500D01*
Y407500D02*
Y408400D01*
X177000Y407500D02*
X180000D01*
X177000Y387500D02*
Y407500D01*
Y387500D02*
X183000D01*
Y407500D01*
X180000D02*
X183000D01*
X180000Y386600D02*
Y387500D01*
Y407500D02*
Y408400D01*
X159000Y407500D02*
X162000D01*
X159000Y387500D02*
Y407500D01*
Y387500D02*
X165000D01*
Y407500D01*
X162000D02*
X165000D01*
X162000Y386600D02*
Y387500D01*
Y407500D02*
Y408400D01*
X17500Y185000D02*
X20500D01*
Y205000D01*
X14500D02*
X20500D01*
X14500Y185000D02*
Y205000D01*
Y185000D02*
X17500D01*
Y205000D02*
Y205900D01*
Y184100D02*
Y185000D01*
X35500D02*
X38500D01*
Y205000D01*
X32500D02*
X38500D01*
X32500Y185000D02*
Y205000D01*
Y185000D02*
X35500D01*
Y205000D02*
Y205900D01*
Y184100D02*
Y185000D01*
X53500D02*
X56500D01*
Y205000D01*
X50500D02*
X56500D01*
X50500Y185000D02*
Y205000D01*
Y185000D02*
X53500D01*
Y205000D02*
Y205900D01*
Y184100D02*
Y185000D01*
X71500D02*
X74500D01*
Y205000D01*
X68500D02*
X74500D01*
X68500Y185000D02*
Y205000D01*
Y185000D02*
X71500D01*
Y205000D02*
Y205900D01*
Y184100D02*
Y185000D01*
X89500D02*
X92500D01*
Y205000D01*
X86500D02*
X92500D01*
X86500Y185000D02*
Y205000D01*
Y185000D02*
X89500D01*
Y205000D02*
Y205900D01*
Y184100D02*
Y185000D01*
X107500D02*
X110500D01*
Y205000D01*
X104500D02*
X110500D01*
X104500Y185000D02*
Y205000D01*
Y185000D02*
X107500D01*
Y205000D02*
Y205900D01*
Y184100D02*
Y185000D01*
X125500D02*
X128500D01*
Y205000D01*
X122500D02*
X128500D01*
X122500Y185000D02*
Y205000D01*
Y185000D02*
X125500D01*
Y205000D02*
Y205900D01*
Y184100D02*
Y185000D01*
X143500D02*
X146500D01*
Y205000D01*
X140500D02*
X146500D01*
X140500Y185000D02*
Y205000D01*
Y185000D02*
X143500D01*
Y205000D02*
Y205900D01*
Y184100D02*
Y185000D01*
X141000Y407500D02*
X144000D01*
X141000Y387500D02*
Y407500D01*
Y387500D02*
X147000D01*
Y407500D01*
X144000D02*
X147000D01*
X144000Y386600D02*
Y387500D01*
Y407500D02*
Y408400D01*
X123000Y407500D02*
X126000D01*
X123000Y387500D02*
Y407500D01*
Y387500D02*
X129000D01*
Y407500D01*
X126000D02*
X129000D01*
X126000Y386600D02*
Y387500D01*
Y407500D02*
Y408400D01*
X105000Y407500D02*
X108000D01*
X105000Y387500D02*
Y407500D01*
Y387500D02*
X111000D01*
Y407500D01*
X108000D02*
X111000D01*
X108000Y386600D02*
Y387500D01*
Y407500D02*
Y408400D01*
X87000Y407500D02*
X90000D01*
X87000Y387500D02*
Y407500D01*
Y387500D02*
X93000D01*
Y407500D01*
X90000D02*
X93000D01*
X90000Y386600D02*
Y387500D01*
Y407500D02*
Y408400D01*
X69000Y407500D02*
X72000D01*
X69000Y387500D02*
Y407500D01*
Y387500D02*
X75000D01*
Y407500D01*
X72000D02*
X75000D01*
X72000Y386600D02*
Y387500D01*
Y407500D02*
Y408400D01*
X51000Y407500D02*
X54000D01*
X51000Y387500D02*
Y407500D01*
Y387500D02*
X57000D01*
Y407500D01*
X54000D02*
X57000D01*
X54000Y386600D02*
Y387500D01*
Y407500D02*
Y408400D01*
X33000Y407500D02*
X36000D01*
X33000Y387500D02*
Y407500D01*
Y387500D02*
X39000D01*
Y407500D01*
X36000D02*
X39000D01*
X36000Y386600D02*
Y387500D01*
Y407500D02*
Y408400D01*
X15000Y407500D02*
X18000D01*
X15000Y387500D02*
Y407500D01*
Y387500D02*
X21000D01*
Y407500D01*
X18000D02*
X21000D01*
X18000Y386600D02*
Y387500D01*
Y407500D02*
Y408400D01*
X15500Y332500D02*
Y362500D01*
Y332500D02*
X25500D01*
Y362500D01*
X15500D02*
X25500D01*
X239500Y14500D02*
Y24500D01*
X319500D01*
Y14500D02*
Y24500D01*
X239500Y14500D02*
X319500D01*
X596000Y233436D02*
Y230625D01*
X596187Y230062D01*
X596562Y229687D01*
X597125Y229500D01*
X597500D01*
X598062Y229687D01*
X598437Y230062D01*
X598624Y230625D01*
Y233436D01*
X602148Y232124D02*
X601961Y231562D01*
X601586Y231187D01*
X601023Y230999D01*
X600836D01*
X600274Y231187D01*
X599899Y231562D01*
X599711Y232124D01*
Y232312D01*
X599899Y232874D01*
X600274Y233249D01*
X600836Y233436D01*
X601023D01*
X601586Y233249D01*
X601961Y232874D01*
X602148Y232124D01*
Y231187D01*
X601961Y230250D01*
X601586Y229687D01*
X601023Y229500D01*
X600648D01*
X600086Y229687D01*
X599899Y230062D01*
X459500Y302936D02*
Y300125D01*
X459687Y299562D01*
X460062Y299187D01*
X460625Y299000D01*
X460999D01*
X461562Y299187D01*
X461937Y299562D01*
X462124Y300125D01*
Y302936D01*
X464148D02*
X463586Y302749D01*
X463399Y302374D01*
Y301999D01*
X463586Y301624D01*
X463961Y301437D01*
X464711Y301249D01*
X465273Y301062D01*
X465648Y300687D01*
X465835Y300312D01*
Y299750D01*
X465648Y299375D01*
X465460Y299187D01*
X464898Y299000D01*
X464148D01*
X463586Y299187D01*
X463399Y299375D01*
X463211Y299750D01*
Y300312D01*
X463399Y300687D01*
X463773Y301062D01*
X464336Y301249D01*
X465086Y301437D01*
X465460Y301624D01*
X465648Y301999D01*
Y302374D01*
X465460Y302749D01*
X464898Y302936D01*
X464148D01*
X446000Y377830D02*
Y375018D01*
X446187Y374456D01*
X446562Y374081D01*
X447125Y373894D01*
X447500D01*
X448062Y374081D01*
X448437Y374456D01*
X448624Y375018D01*
Y377830D01*
X452335D02*
X450461Y373894D01*
X449711Y377830D02*
X452335D01*
X311500Y301436D02*
Y298625D01*
X311687Y298062D01*
X312062Y297688D01*
X312625Y297500D01*
X313000D01*
X313562Y297688D01*
X313937Y298062D01*
X314124Y298625D01*
Y301436D01*
X317460Y300874D02*
X317273Y301249D01*
X316711Y301436D01*
X316336D01*
X315774Y301249D01*
X315399Y300686D01*
X315211Y299749D01*
Y298812D01*
X315399Y298062D01*
X315774Y297688D01*
X316336Y297500D01*
X316523D01*
X317086Y297688D01*
X317460Y298062D01*
X317648Y298625D01*
Y298812D01*
X317460Y299374D01*
X317086Y299749D01*
X316523Y299937D01*
X316336D01*
X315774Y299749D01*
X315399Y299374D01*
X315211Y298812D01*
X312000Y378436D02*
Y375625D01*
X312187Y375062D01*
X312562Y374687D01*
X313125Y374500D01*
X313499D01*
X314062Y374687D01*
X314437Y375062D01*
X314624Y375625D01*
Y378436D01*
X317961D02*
X316086D01*
X315899Y376749D01*
X316086Y376937D01*
X316648Y377124D01*
X317211D01*
X317773Y376937D01*
X318148Y376562D01*
X318335Y375999D01*
Y375625D01*
X318148Y375062D01*
X317773Y374687D01*
X317211Y374500D01*
X316648D01*
X316086Y374687D01*
X315899Y374875D01*
X315711Y375250D01*
X164000Y301936D02*
Y299125D01*
X164187Y298562D01*
X164562Y298187D01*
X165125Y298000D01*
X165499D01*
X166062Y298187D01*
X166437Y298562D01*
X166624Y299125D01*
Y301936D01*
X169586D02*
X167711Y299312D01*
X170523D01*
X169586Y301936D02*
Y298000D01*
X179500Y377936D02*
Y375125D01*
X179687Y374562D01*
X180062Y374187D01*
X180625Y374000D01*
X181000D01*
X181562Y374187D01*
X181937Y374562D01*
X182124Y375125D01*
Y377936D01*
X183586D02*
X185648D01*
X184523Y376437D01*
X185086D01*
X185460Y376249D01*
X185648Y376062D01*
X185835Y375500D01*
Y375125D01*
X185648Y374562D01*
X185273Y374187D01*
X184711Y374000D01*
X184148D01*
X183586Y374187D01*
X183399Y374375D01*
X183211Y374750D01*
X17000Y301936D02*
Y299125D01*
X17187Y298562D01*
X17562Y298187D01*
X18125Y298000D01*
X18499D01*
X19062Y298187D01*
X19437Y298562D01*
X19624Y299125D01*
Y301936D01*
X20899Y300999D02*
Y301186D01*
X21086Y301561D01*
X21273Y301749D01*
X21648Y301936D01*
X22398D01*
X22773Y301749D01*
X22961Y301561D01*
X23148Y301186D01*
Y300812D01*
X22961Y300437D01*
X22586Y299874D01*
X20711Y298000D01*
X23335D01*
X39500Y378436D02*
Y375625D01*
X39687Y375062D01*
X40062Y374687D01*
X40625Y374500D01*
X40999D01*
X41562Y374687D01*
X41937Y375062D01*
X42124Y375625D01*
Y378436D01*
X43211Y377686D02*
X43586Y377874D01*
X44148Y378436D01*
Y374500D01*
X446900Y219836D02*
Y215900D01*
Y219836D02*
X448587D01*
X449149Y219649D01*
X449337Y219461D01*
X449524Y219086D01*
Y218711D01*
X449337Y218337D01*
X449149Y218149D01*
X448587Y217962D01*
X446900D01*
X448212D02*
X449524Y215900D01*
X452654Y219274D02*
X452467Y219649D01*
X451904Y219836D01*
X451530D01*
X450967Y219649D01*
X450593Y219086D01*
X450405Y218149D01*
Y217212D01*
X450593Y216462D01*
X450967Y216087D01*
X451530Y215900D01*
X451717D01*
X452279Y216087D01*
X452654Y216462D01*
X452842Y217025D01*
Y217212D01*
X452654Y217774D01*
X452279Y218149D01*
X451717Y218337D01*
X451530D01*
X450967Y218149D01*
X450593Y217774D01*
X450405Y217212D01*
X455578Y219836D02*
X453704Y217212D01*
X456516D01*
X455578Y219836D02*
Y215900D01*
X464900Y219836D02*
Y215900D01*
Y219836D02*
X466587D01*
X467149Y219649D01*
X467337Y219461D01*
X467524Y219086D01*
Y218711D01*
X467337Y218337D01*
X467149Y218149D01*
X466587Y217962D01*
X464900D01*
X466212D02*
X467524Y215900D01*
X470654Y219274D02*
X470467Y219649D01*
X469905Y219836D01*
X469530D01*
X468967Y219649D01*
X468593Y219086D01*
X468405Y218149D01*
Y217212D01*
X468593Y216462D01*
X468967Y216087D01*
X469530Y215900D01*
X469717D01*
X470279Y216087D01*
X470654Y216462D01*
X470842Y217025D01*
Y217212D01*
X470654Y217774D01*
X470279Y218149D01*
X469717Y218337D01*
X469530D01*
X468967Y218149D01*
X468593Y217774D01*
X468405Y217212D01*
X472079Y219836D02*
X474141D01*
X473016Y218337D01*
X473578D01*
X473953Y218149D01*
X474141Y217962D01*
X474328Y217400D01*
Y217025D01*
X474141Y216462D01*
X473766Y216087D01*
X473203Y215900D01*
X472641D01*
X472079Y216087D01*
X471891Y216275D01*
X471704Y216650D01*
X482900Y219836D02*
Y215900D01*
Y219836D02*
X484587D01*
X485149Y219649D01*
X485337Y219461D01*
X485524Y219086D01*
Y218711D01*
X485337Y218337D01*
X485149Y218149D01*
X484587Y217962D01*
X482900D01*
X484212D02*
X485524Y215900D01*
X488654Y219274D02*
X488467Y219649D01*
X487905Y219836D01*
X487530D01*
X486967Y219649D01*
X486592Y219086D01*
X486405Y218149D01*
Y217212D01*
X486592Y216462D01*
X486967Y216087D01*
X487530Y215900D01*
X487717D01*
X488279Y216087D01*
X488654Y216462D01*
X488842Y217025D01*
Y217212D01*
X488654Y217774D01*
X488279Y218149D01*
X487717Y218337D01*
X487530D01*
X486967Y218149D01*
X486592Y217774D01*
X486405Y217212D01*
X489891Y218899D02*
Y219086D01*
X490079Y219461D01*
X490266Y219649D01*
X490641Y219836D01*
X491391D01*
X491766Y219649D01*
X491953Y219461D01*
X492141Y219086D01*
Y218711D01*
X491953Y218337D01*
X491578Y217774D01*
X489704Y215900D01*
X492328D01*
X500900Y219836D02*
Y215900D01*
Y219836D02*
X502587D01*
X503149Y219649D01*
X503337Y219461D01*
X503524Y219086D01*
Y218711D01*
X503337Y218337D01*
X503149Y218149D01*
X502587Y217962D01*
X500900D01*
X502212D02*
X503524Y215900D01*
X506654Y219274D02*
X506467Y219649D01*
X505904Y219836D01*
X505530D01*
X504967Y219649D01*
X504593Y219086D01*
X504405Y218149D01*
Y217212D01*
X504593Y216462D01*
X504967Y216087D01*
X505530Y215900D01*
X505717D01*
X506279Y216087D01*
X506654Y216462D01*
X506842Y217025D01*
Y217212D01*
X506654Y217774D01*
X506279Y218149D01*
X505717Y218337D01*
X505530D01*
X504967Y218149D01*
X504593Y217774D01*
X504405Y217212D01*
X507704Y219086D02*
X508079Y219274D01*
X508641Y219836D01*
Y215900D01*
X518900Y219836D02*
Y215900D01*
Y219836D02*
X520587D01*
X521149Y219649D01*
X521337Y219461D01*
X521524Y219086D01*
Y218711D01*
X521337Y218337D01*
X521149Y218149D01*
X520587Y217962D01*
X518900D01*
X520212D02*
X521524Y215900D01*
X524654Y219274D02*
X524467Y219649D01*
X523905Y219836D01*
X523530D01*
X522967Y219649D01*
X522592Y219086D01*
X522405Y218149D01*
Y217212D01*
X522592Y216462D01*
X522967Y216087D01*
X523530Y215900D01*
X523717D01*
X524279Y216087D01*
X524654Y216462D01*
X524842Y217025D01*
Y217212D01*
X524654Y217774D01*
X524279Y218149D01*
X523717Y218337D01*
X523530D01*
X522967Y218149D01*
X522592Y217774D01*
X522405Y217212D01*
X526828Y219836D02*
X526266Y219649D01*
X525891Y219086D01*
X525704Y218149D01*
Y217587D01*
X525891Y216650D01*
X526266Y216087D01*
X526828Y215900D01*
X527203D01*
X527766Y216087D01*
X528141Y216650D01*
X528328Y217587D01*
Y218149D01*
X528141Y219086D01*
X527766Y219649D01*
X527203Y219836D01*
X526828D01*
X536900D02*
Y215900D01*
Y219836D02*
X538587D01*
X539149Y219649D01*
X539337Y219461D01*
X539524Y219086D01*
Y218711D01*
X539337Y218337D01*
X539149Y218149D01*
X538587Y217962D01*
X536900D01*
X538212D02*
X539524Y215900D01*
X542654Y219836D02*
X540780D01*
X540592Y218149D01*
X540780Y218337D01*
X541342Y218524D01*
X541904D01*
X542467Y218337D01*
X542842Y217962D01*
X543029Y217400D01*
Y217025D01*
X542842Y216462D01*
X542467Y216087D01*
X541904Y215900D01*
X541342D01*
X540780Y216087D01*
X540592Y216275D01*
X540405Y216650D01*
X546347Y218524D02*
X546159Y217962D01*
X545785Y217587D01*
X545222Y217400D01*
X545035D01*
X544472Y217587D01*
X544098Y217962D01*
X543910Y218524D01*
Y218711D01*
X544098Y219274D01*
X544472Y219649D01*
X545035Y219836D01*
X545222D01*
X545785Y219649D01*
X546159Y219274D01*
X546347Y218524D01*
Y217587D01*
X546159Y216650D01*
X545785Y216087D01*
X545222Y215900D01*
X544847D01*
X544285Y216087D01*
X544098Y216462D01*
X554900Y219836D02*
Y215900D01*
Y219836D02*
X556587D01*
X557149Y219649D01*
X557337Y219461D01*
X557524Y219086D01*
Y218711D01*
X557337Y218337D01*
X557149Y218149D01*
X556587Y217962D01*
X554900D01*
X556212D02*
X557524Y215900D01*
X560654Y219836D02*
X558780D01*
X558593Y218149D01*
X558780Y218337D01*
X559342Y218524D01*
X559904D01*
X560467Y218337D01*
X560842Y217962D01*
X561029Y217400D01*
Y217025D01*
X560842Y216462D01*
X560467Y216087D01*
X559904Y215900D01*
X559342D01*
X558780Y216087D01*
X558593Y216275D01*
X558405Y216650D01*
X562847Y219836D02*
X562285Y219649D01*
X562098Y219274D01*
Y218899D01*
X562285Y218524D01*
X562660Y218337D01*
X563410Y218149D01*
X563972Y217962D01*
X564347Y217587D01*
X564534Y217212D01*
Y216650D01*
X564347Y216275D01*
X564159Y216087D01*
X563597Y215900D01*
X562847D01*
X562285Y216087D01*
X562098Y216275D01*
X561910Y216650D01*
Y217212D01*
X562098Y217587D01*
X562472Y217962D01*
X563035Y218149D01*
X563785Y218337D01*
X564159Y218524D01*
X564347Y218899D01*
Y219274D01*
X564159Y219649D01*
X563597Y219836D01*
X562847D01*
X572900D02*
Y215900D01*
Y219836D02*
X574587D01*
X575149Y219649D01*
X575337Y219461D01*
X575524Y219086D01*
Y218711D01*
X575337Y218337D01*
X575149Y218149D01*
X574587Y217962D01*
X572900D01*
X574212D02*
X575524Y215900D01*
X578654Y219836D02*
X576780D01*
X576592Y218149D01*
X576780Y218337D01*
X577342Y218524D01*
X577905D01*
X578467Y218337D01*
X578842Y217962D01*
X579029Y217400D01*
Y217025D01*
X578842Y216462D01*
X578467Y216087D01*
X577905Y215900D01*
X577342D01*
X576780Y216087D01*
X576592Y216275D01*
X576405Y216650D01*
X582534Y219836D02*
X580660Y215900D01*
X579910Y219836D02*
X582534D01*
X573400Y422330D02*
Y418394D01*
Y422330D02*
X575087D01*
X575649Y422142D01*
X575837Y421955D01*
X576024Y421580D01*
Y421205D01*
X575837Y420830D01*
X575649Y420643D01*
X575087Y420456D01*
X573400D01*
X574712D02*
X576024Y418394D01*
X579154Y422330D02*
X577280D01*
X577093Y420643D01*
X577280Y420830D01*
X577842Y421018D01*
X578405D01*
X578967Y420830D01*
X579342Y420456D01*
X579529Y419893D01*
Y419518D01*
X579342Y418956D01*
X578967Y418581D01*
X578405Y418394D01*
X577842D01*
X577280Y418581D01*
X577093Y418769D01*
X576905Y419143D01*
X582659Y421768D02*
X582472Y422142D01*
X581910Y422330D01*
X581535D01*
X580972Y422142D01*
X580597Y421580D01*
X580410Y420643D01*
Y419706D01*
X580597Y418956D01*
X580972Y418581D01*
X581535Y418394D01*
X581722D01*
X582284Y418581D01*
X582659Y418956D01*
X582847Y419518D01*
Y419706D01*
X582659Y420268D01*
X582284Y420643D01*
X581722Y420830D01*
X581535D01*
X580972Y420643D01*
X580597Y420268D01*
X580410Y419706D01*
X555400Y422330D02*
Y418394D01*
Y422330D02*
X557087D01*
X557649Y422142D01*
X557837Y421955D01*
X558024Y421580D01*
Y421205D01*
X557837Y420830D01*
X557649Y420643D01*
X557087Y420456D01*
X555400D01*
X556712D02*
X558024Y418394D01*
X561154Y422330D02*
X559280D01*
X559093Y420643D01*
X559280Y420830D01*
X559842Y421018D01*
X560404D01*
X560967Y420830D01*
X561342Y420456D01*
X561529Y419893D01*
Y419518D01*
X561342Y418956D01*
X560967Y418581D01*
X560404Y418394D01*
X559842D01*
X559280Y418581D01*
X559093Y418769D01*
X558905Y419143D01*
X564659Y422330D02*
X562785D01*
X562598Y420643D01*
X562785Y420830D01*
X563347Y421018D01*
X563910D01*
X564472Y420830D01*
X564847Y420456D01*
X565034Y419893D01*
Y419518D01*
X564847Y418956D01*
X564472Y418581D01*
X563910Y418394D01*
X563347D01*
X562785Y418581D01*
X562598Y418769D01*
X562410Y419143D01*
X537400Y422330D02*
Y418394D01*
Y422330D02*
X539087D01*
X539649Y422142D01*
X539837Y421955D01*
X540024Y421580D01*
Y421205D01*
X539837Y420830D01*
X539649Y420643D01*
X539087Y420456D01*
X537400D01*
X538712D02*
X540024Y418394D01*
X543154Y422330D02*
X541280D01*
X541092Y420643D01*
X541280Y420830D01*
X541842Y421018D01*
X542405D01*
X542967Y420830D01*
X543342Y420456D01*
X543529Y419893D01*
Y419518D01*
X543342Y418956D01*
X542967Y418581D01*
X542405Y418394D01*
X541842D01*
X541280Y418581D01*
X541092Y418769D01*
X540905Y419143D01*
X546284Y422330D02*
X544410Y419706D01*
X547222D01*
X546284Y422330D02*
Y418394D01*
X519400Y422330D02*
Y418394D01*
Y422330D02*
X521087D01*
X521649Y422142D01*
X521837Y421955D01*
X522024Y421580D01*
Y421205D01*
X521837Y420830D01*
X521649Y420643D01*
X521087Y420456D01*
X519400D01*
X520712D02*
X522024Y418394D01*
X525154Y422330D02*
X523280D01*
X523093Y420643D01*
X523280Y420830D01*
X523842Y421018D01*
X524404D01*
X524967Y420830D01*
X525342Y420456D01*
X525529Y419893D01*
Y419518D01*
X525342Y418956D01*
X524967Y418581D01*
X524404Y418394D01*
X523842D01*
X523280Y418581D01*
X523093Y418769D01*
X522905Y419143D01*
X526785Y422330D02*
X528847D01*
X527722Y420830D01*
X528285D01*
X528659Y420643D01*
X528847Y420456D01*
X529034Y419893D01*
Y419518D01*
X528847Y418956D01*
X528472Y418581D01*
X527910Y418394D01*
X527347D01*
X526785Y418581D01*
X526597Y418769D01*
X526410Y419143D01*
X501400Y422330D02*
Y418394D01*
Y422330D02*
X503087D01*
X503649Y422142D01*
X503837Y421955D01*
X504024Y421580D01*
Y421205D01*
X503837Y420830D01*
X503649Y420643D01*
X503087Y420456D01*
X501400D01*
X502712D02*
X504024Y418394D01*
X507154Y422330D02*
X505280D01*
X505092Y420643D01*
X505280Y420830D01*
X505842Y421018D01*
X506404D01*
X506967Y420830D01*
X507342Y420456D01*
X507529Y419893D01*
Y419518D01*
X507342Y418956D01*
X506967Y418581D01*
X506404Y418394D01*
X505842D01*
X505280Y418581D01*
X505092Y418769D01*
X504905Y419143D01*
X508598Y421393D02*
Y421580D01*
X508785Y421955D01*
X508972Y422142D01*
X509347Y422330D01*
X510097D01*
X510472Y422142D01*
X510659Y421955D01*
X510847Y421580D01*
Y421205D01*
X510659Y420830D01*
X510285Y420268D01*
X508410Y418394D01*
X511034D01*
X483400Y422330D02*
Y418394D01*
Y422330D02*
X485087D01*
X485649Y422142D01*
X485837Y421955D01*
X486024Y421580D01*
Y421205D01*
X485837Y420830D01*
X485649Y420643D01*
X485087Y420456D01*
X483400D01*
X484712D02*
X486024Y418394D01*
X489154Y422330D02*
X487280D01*
X487092Y420643D01*
X487280Y420830D01*
X487842Y421018D01*
X488405D01*
X488967Y420830D01*
X489342Y420456D01*
X489529Y419893D01*
Y419518D01*
X489342Y418956D01*
X488967Y418581D01*
X488405Y418394D01*
X487842D01*
X487280Y418581D01*
X487092Y418769D01*
X486905Y419143D01*
X490410Y421580D02*
X490785Y421768D01*
X491347Y422330D01*
Y418394D01*
X465400Y422330D02*
Y418394D01*
Y422330D02*
X467087D01*
X467649Y422142D01*
X467837Y421955D01*
X468024Y421580D01*
Y421205D01*
X467837Y420830D01*
X467649Y420643D01*
X467087Y420456D01*
X465400D01*
X466712D02*
X468024Y418394D01*
X471154Y422330D02*
X469280D01*
X469093Y420643D01*
X469280Y420830D01*
X469842Y421018D01*
X470404D01*
X470967Y420830D01*
X471342Y420456D01*
X471529Y419893D01*
Y419518D01*
X471342Y418956D01*
X470967Y418581D01*
X470404Y418394D01*
X469842D01*
X469280Y418581D01*
X469093Y418769D01*
X468905Y419143D01*
X473535Y422330D02*
X472972Y422142D01*
X472598Y421580D01*
X472410Y420643D01*
Y420081D01*
X472598Y419143D01*
X472972Y418581D01*
X473535Y418394D01*
X473910D01*
X474472Y418581D01*
X474847Y419143D01*
X475034Y420081D01*
Y420643D01*
X474847Y421580D01*
X474472Y422142D01*
X473910Y422330D01*
X473535D01*
X447400D02*
Y418394D01*
Y422330D02*
X449087D01*
X449649Y422142D01*
X449837Y421955D01*
X450024Y421580D01*
Y421205D01*
X449837Y420830D01*
X449649Y420643D01*
X449087Y420456D01*
X447400D01*
X448712D02*
X450024Y418394D01*
X452779Y422330D02*
X450905Y419706D01*
X453717D01*
X452779Y422330D02*
Y418394D01*
X456847Y421018D02*
X456659Y420456D01*
X456285Y420081D01*
X455722Y419893D01*
X455535D01*
X454972Y420081D01*
X454598Y420456D01*
X454410Y421018D01*
Y421205D01*
X454598Y421768D01*
X454972Y422142D01*
X455535Y422330D01*
X455722D01*
X456285Y422142D01*
X456659Y421768D01*
X456847Y421018D01*
Y420081D01*
X456659Y419143D01*
X456285Y418581D01*
X455722Y418394D01*
X455347D01*
X454785Y418581D01*
X454598Y418956D01*
X302900Y219836D02*
Y215900D01*
Y219836D02*
X304587D01*
X305149Y219649D01*
X305337Y219461D01*
X305524Y219086D01*
Y218711D01*
X305337Y218337D01*
X305149Y218149D01*
X304587Y217962D01*
X302900D01*
X304212D02*
X305524Y215900D01*
X308279Y219836D02*
X306405Y217212D01*
X309217D01*
X308279Y219836D02*
Y215900D01*
X310847Y219836D02*
X310285Y219649D01*
X310098Y219274D01*
Y218899D01*
X310285Y218524D01*
X310660Y218337D01*
X311410Y218149D01*
X311972Y217962D01*
X312347Y217587D01*
X312534Y217212D01*
Y216650D01*
X312347Y216275D01*
X312159Y216087D01*
X311597Y215900D01*
X310847D01*
X310285Y216087D01*
X310098Y216275D01*
X309910Y216650D01*
Y217212D01*
X310098Y217587D01*
X310472Y217962D01*
X311035Y218149D01*
X311785Y218337D01*
X312159Y218524D01*
X312347Y218899D01*
Y219274D01*
X312159Y219649D01*
X311597Y219836D01*
X310847D01*
X320900D02*
Y215900D01*
Y219836D02*
X322587D01*
X323149Y219649D01*
X323337Y219461D01*
X323524Y219086D01*
Y218711D01*
X323337Y218337D01*
X323149Y218149D01*
X322587Y217962D01*
X320900D01*
X322212D02*
X323524Y215900D01*
X326279Y219836D02*
X324405Y217212D01*
X327217D01*
X326279Y219836D02*
Y215900D01*
X330534Y219836D02*
X328660Y215900D01*
X327910Y219836D02*
X330534D01*
X338900D02*
Y215900D01*
Y219836D02*
X340587D01*
X341149Y219649D01*
X341337Y219461D01*
X341524Y219086D01*
Y218711D01*
X341337Y218337D01*
X341149Y218149D01*
X340587Y217962D01*
X338900D01*
X340212D02*
X341524Y215900D01*
X344279Y219836D02*
X342405Y217212D01*
X345217D01*
X344279Y219836D02*
Y215900D01*
X348159Y219274D02*
X347972Y219649D01*
X347410Y219836D01*
X347035D01*
X346472Y219649D01*
X346097Y219086D01*
X345910Y218149D01*
Y217212D01*
X346097Y216462D01*
X346472Y216087D01*
X347035Y215900D01*
X347222D01*
X347784Y216087D01*
X348159Y216462D01*
X348347Y217025D01*
Y217212D01*
X348159Y217774D01*
X347784Y218149D01*
X347222Y218337D01*
X347035D01*
X346472Y218149D01*
X346097Y217774D01*
X345910Y217212D01*
X356900Y219836D02*
Y215900D01*
Y219836D02*
X358587D01*
X359149Y219649D01*
X359337Y219461D01*
X359524Y219086D01*
Y218711D01*
X359337Y218337D01*
X359149Y218149D01*
X358587Y217962D01*
X356900D01*
X358212D02*
X359524Y215900D01*
X362279Y219836D02*
X360405Y217212D01*
X363217D01*
X362279Y219836D02*
Y215900D01*
X366159Y219836D02*
X364285D01*
X364097Y218149D01*
X364285Y218337D01*
X364847Y218524D01*
X365410D01*
X365972Y218337D01*
X366347Y217962D01*
X366534Y217400D01*
Y217025D01*
X366347Y216462D01*
X365972Y216087D01*
X365410Y215900D01*
X364847D01*
X364285Y216087D01*
X364097Y216275D01*
X363910Y216650D01*
X374900Y219836D02*
Y215900D01*
Y219836D02*
X376587D01*
X377149Y219649D01*
X377337Y219461D01*
X377524Y219086D01*
Y218711D01*
X377337Y218337D01*
X377149Y218149D01*
X376587Y217962D01*
X374900D01*
X376212D02*
X377524Y215900D01*
X380279Y219836D02*
X378405Y217212D01*
X381217D01*
X380279Y219836D02*
Y215900D01*
X383785Y219836D02*
X381910Y217212D01*
X384722D01*
X383785Y219836D02*
Y215900D01*
X392900Y219836D02*
Y215900D01*
Y219836D02*
X394587D01*
X395149Y219649D01*
X395337Y219461D01*
X395524Y219086D01*
Y218711D01*
X395337Y218337D01*
X395149Y218149D01*
X394587Y217962D01*
X392900D01*
X394212D02*
X395524Y215900D01*
X398279Y219836D02*
X396405Y217212D01*
X399217D01*
X398279Y219836D02*
Y215900D01*
X400285Y219836D02*
X402347D01*
X401222Y218337D01*
X401785D01*
X402159Y218149D01*
X402347Y217962D01*
X402534Y217400D01*
Y217025D01*
X402347Y216462D01*
X401972Y216087D01*
X401410Y215900D01*
X400847D01*
X400285Y216087D01*
X400098Y216275D01*
X399910Y216650D01*
X410900Y219836D02*
Y215900D01*
Y219836D02*
X412587D01*
X413149Y219649D01*
X413337Y219461D01*
X413524Y219086D01*
Y218711D01*
X413337Y218337D01*
X413149Y218149D01*
X412587Y217962D01*
X410900D01*
X412212D02*
X413524Y215900D01*
X416279Y219836D02*
X414405Y217212D01*
X417217D01*
X416279Y219836D02*
Y215900D01*
X418097Y218899D02*
Y219086D01*
X418285Y219461D01*
X418472Y219649D01*
X418847Y219836D01*
X419597D01*
X419972Y219649D01*
X420159Y219461D01*
X420347Y219086D01*
Y218711D01*
X420159Y218337D01*
X419784Y217774D01*
X417910Y215900D01*
X420534D01*
X428900Y219836D02*
Y215900D01*
Y219836D02*
X430587D01*
X431149Y219649D01*
X431337Y219461D01*
X431524Y219086D01*
Y218711D01*
X431337Y218337D01*
X431149Y218149D01*
X430587Y217962D01*
X428900D01*
X430212D02*
X431524Y215900D01*
X434279Y219836D02*
X432405Y217212D01*
X435217D01*
X434279Y219836D02*
Y215900D01*
X435910Y219086D02*
X436285Y219274D01*
X436847Y219836D01*
Y215900D01*
X429400Y422330D02*
Y418394D01*
Y422330D02*
X431087D01*
X431649Y422142D01*
X431837Y421955D01*
X432024Y421580D01*
Y421205D01*
X431837Y420830D01*
X431649Y420643D01*
X431087Y420456D01*
X429400D01*
X430712D02*
X432024Y418394D01*
X434779Y422330D02*
X432905Y419706D01*
X435717D01*
X434779Y422330D02*
Y418394D01*
X437535Y422330D02*
X436972Y422142D01*
X436597Y421580D01*
X436410Y420643D01*
Y420081D01*
X436597Y419143D01*
X436972Y418581D01*
X437535Y418394D01*
X437910D01*
X438472Y418581D01*
X438847Y419143D01*
X439034Y420081D01*
Y420643D01*
X438847Y421580D01*
X438472Y422142D01*
X437910Y422330D01*
X437535D01*
X411400D02*
Y418394D01*
Y422330D02*
X413087D01*
X413649Y422142D01*
X413837Y421955D01*
X414024Y421580D01*
Y421205D01*
X413837Y420830D01*
X413649Y420643D01*
X413087Y420456D01*
X411400D01*
X412712D02*
X414024Y418394D01*
X415280Y422330D02*
X417342D01*
X416217Y420830D01*
X416779D01*
X417154Y420643D01*
X417342Y420456D01*
X417529Y419893D01*
Y419518D01*
X417342Y418956D01*
X416967Y418581D01*
X416404Y418394D01*
X415842D01*
X415280Y418581D01*
X415093Y418769D01*
X414905Y419143D01*
X420847Y421018D02*
X420659Y420456D01*
X420285Y420081D01*
X419722Y419893D01*
X419535D01*
X418972Y420081D01*
X418598Y420456D01*
X418410Y421018D01*
Y421205D01*
X418598Y421768D01*
X418972Y422142D01*
X419535Y422330D01*
X419722D01*
X420285Y422142D01*
X420659Y421768D01*
X420847Y421018D01*
Y420081D01*
X420659Y419143D01*
X420285Y418581D01*
X419722Y418394D01*
X419347D01*
X418785Y418581D01*
X418598Y418956D01*
X393400Y422330D02*
Y418394D01*
Y422330D02*
X395087D01*
X395649Y422142D01*
X395837Y421955D01*
X396024Y421580D01*
Y421205D01*
X395837Y420830D01*
X395649Y420643D01*
X395087Y420456D01*
X393400D01*
X394712D02*
X396024Y418394D01*
X397280Y422330D02*
X399342D01*
X398217Y420830D01*
X398779D01*
X399154Y420643D01*
X399342Y420456D01*
X399529Y419893D01*
Y419518D01*
X399342Y418956D01*
X398967Y418581D01*
X398405Y418394D01*
X397842D01*
X397280Y418581D01*
X397093Y418769D01*
X396905Y419143D01*
X401347Y422330D02*
X400785Y422142D01*
X400597Y421768D01*
Y421393D01*
X400785Y421018D01*
X401160Y420830D01*
X401910Y420643D01*
X402472Y420456D01*
X402847Y420081D01*
X403034Y419706D01*
Y419143D01*
X402847Y418769D01*
X402659Y418581D01*
X402097Y418394D01*
X401347D01*
X400785Y418581D01*
X400597Y418769D01*
X400410Y419143D01*
Y419706D01*
X400597Y420081D01*
X400972Y420456D01*
X401535Y420643D01*
X402284Y420830D01*
X402659Y421018D01*
X402847Y421393D01*
Y421768D01*
X402659Y422142D01*
X402097Y422330D01*
X401347D01*
X375400D02*
Y418394D01*
Y422330D02*
X377087D01*
X377649Y422142D01*
X377837Y421955D01*
X378024Y421580D01*
Y421205D01*
X377837Y420830D01*
X377649Y420643D01*
X377087Y420456D01*
X375400D01*
X376712D02*
X378024Y418394D01*
X379280Y422330D02*
X381342D01*
X380217Y420830D01*
X380779D01*
X381154Y420643D01*
X381342Y420456D01*
X381529Y419893D01*
Y419518D01*
X381342Y418956D01*
X380967Y418581D01*
X380404Y418394D01*
X379842D01*
X379280Y418581D01*
X379093Y418769D01*
X378905Y419143D01*
X385034Y422330D02*
X383160Y418394D01*
X382410Y422330D02*
X385034D01*
X357400D02*
Y418394D01*
Y422330D02*
X359087D01*
X359649Y422142D01*
X359837Y421955D01*
X360024Y421580D01*
Y421205D01*
X359837Y420830D01*
X359649Y420643D01*
X359087Y420456D01*
X357400D01*
X358712D02*
X360024Y418394D01*
X361280Y422330D02*
X363342D01*
X362217Y420830D01*
X362779D01*
X363154Y420643D01*
X363342Y420456D01*
X363529Y419893D01*
Y419518D01*
X363342Y418956D01*
X362967Y418581D01*
X362404Y418394D01*
X361842D01*
X361280Y418581D01*
X361092Y418769D01*
X360905Y419143D01*
X366659Y421768D02*
X366472Y422142D01*
X365910Y422330D01*
X365535D01*
X364972Y422142D01*
X364598Y421580D01*
X364410Y420643D01*
Y419706D01*
X364598Y418956D01*
X364972Y418581D01*
X365535Y418394D01*
X365722D01*
X366284Y418581D01*
X366659Y418956D01*
X366847Y419518D01*
Y419706D01*
X366659Y420268D01*
X366284Y420643D01*
X365722Y420830D01*
X365535D01*
X364972Y420643D01*
X364598Y420268D01*
X364410Y419706D01*
X339400Y422330D02*
Y418394D01*
Y422330D02*
X341087D01*
X341649Y422142D01*
X341837Y421955D01*
X342024Y421580D01*
Y421205D01*
X341837Y420830D01*
X341649Y420643D01*
X341087Y420456D01*
X339400D01*
X340712D02*
X342024Y418394D01*
X343280Y422330D02*
X345342D01*
X344217Y420830D01*
X344779D01*
X345154Y420643D01*
X345342Y420456D01*
X345529Y419893D01*
Y419518D01*
X345342Y418956D01*
X344967Y418581D01*
X344405Y418394D01*
X343842D01*
X343280Y418581D01*
X343092Y418769D01*
X342905Y419143D01*
X348659Y422330D02*
X346785D01*
X346598Y420643D01*
X346785Y420830D01*
X347347Y421018D01*
X347910D01*
X348472Y420830D01*
X348847Y420456D01*
X349034Y419893D01*
Y419518D01*
X348847Y418956D01*
X348472Y418581D01*
X347910Y418394D01*
X347347D01*
X346785Y418581D01*
X346598Y418769D01*
X346410Y419143D01*
X321400Y422330D02*
Y418394D01*
Y422330D02*
X323087D01*
X323649Y422142D01*
X323837Y421955D01*
X324024Y421580D01*
Y421205D01*
X323837Y420830D01*
X323649Y420643D01*
X323087Y420456D01*
X321400D01*
X322712D02*
X324024Y418394D01*
X325280Y422330D02*
X327342D01*
X326217Y420830D01*
X326779D01*
X327154Y420643D01*
X327342Y420456D01*
X327529Y419893D01*
Y419518D01*
X327342Y418956D01*
X326967Y418581D01*
X326405Y418394D01*
X325842D01*
X325280Y418581D01*
X325093Y418769D01*
X324905Y419143D01*
X330285Y422330D02*
X328410Y419706D01*
X331222D01*
X330285Y422330D02*
Y418394D01*
X303400Y422330D02*
Y418394D01*
Y422330D02*
X305087D01*
X305649Y422142D01*
X305837Y421955D01*
X306024Y421580D01*
Y421205D01*
X305837Y420830D01*
X305649Y420643D01*
X305087Y420456D01*
X303400D01*
X304712D02*
X306024Y418394D01*
X307280Y422330D02*
X309342D01*
X308217Y420830D01*
X308779D01*
X309154Y420643D01*
X309342Y420456D01*
X309529Y419893D01*
Y419518D01*
X309342Y418956D01*
X308967Y418581D01*
X308404Y418394D01*
X307842D01*
X307280Y418581D01*
X307092Y418769D01*
X306905Y419143D01*
X310785Y422330D02*
X312847D01*
X311722Y420830D01*
X312284D01*
X312659Y420643D01*
X312847Y420456D01*
X313034Y419893D01*
Y419518D01*
X312847Y418956D01*
X312472Y418581D01*
X311910Y418394D01*
X311347D01*
X310785Y418581D01*
X310597Y418769D01*
X310410Y419143D01*
X158900Y219836D02*
Y215900D01*
Y219836D02*
X160587D01*
X161149Y219649D01*
X161337Y219461D01*
X161524Y219086D01*
Y218711D01*
X161337Y218337D01*
X161149Y218149D01*
X160587Y217962D01*
X158900D01*
X160212D02*
X161524Y215900D01*
X162780Y219836D02*
X164842D01*
X163717Y218337D01*
X164279D01*
X164654Y218149D01*
X164842Y217962D01*
X165029Y217400D01*
Y217025D01*
X164842Y216462D01*
X164467Y216087D01*
X163905Y215900D01*
X163342D01*
X162780Y216087D01*
X162592Y216275D01*
X162405Y216650D01*
X166097Y218899D02*
Y219086D01*
X166285Y219461D01*
X166472Y219649D01*
X166847Y219836D01*
X167597D01*
X167972Y219649D01*
X168159Y219461D01*
X168347Y219086D01*
Y218711D01*
X168159Y218337D01*
X167785Y217774D01*
X165910Y215900D01*
X168534D01*
X176900Y219836D02*
Y215900D01*
Y219836D02*
X178587D01*
X179149Y219649D01*
X179337Y219461D01*
X179524Y219086D01*
Y218711D01*
X179337Y218337D01*
X179149Y218149D01*
X178587Y217962D01*
X176900D01*
X178212D02*
X179524Y215900D01*
X180780Y219836D02*
X182842D01*
X181717Y218337D01*
X182279D01*
X182654Y218149D01*
X182842Y217962D01*
X183029Y217400D01*
Y217025D01*
X182842Y216462D01*
X182467Y216087D01*
X181904Y215900D01*
X181342D01*
X180780Y216087D01*
X180593Y216275D01*
X180405Y216650D01*
X183910Y219086D02*
X184285Y219274D01*
X184847Y219836D01*
Y215900D01*
X194900Y219836D02*
Y215900D01*
Y219836D02*
X196587D01*
X197149Y219649D01*
X197337Y219461D01*
X197524Y219086D01*
Y218711D01*
X197337Y218337D01*
X197149Y218149D01*
X196587Y217962D01*
X194900D01*
X196212D02*
X197524Y215900D01*
X198780Y219836D02*
X200842D01*
X199717Y218337D01*
X200279D01*
X200654Y218149D01*
X200842Y217962D01*
X201029Y217400D01*
Y217025D01*
X200842Y216462D01*
X200467Y216087D01*
X199905Y215900D01*
X199342D01*
X198780Y216087D01*
X198592Y216275D01*
X198405Y216650D01*
X203035Y219836D02*
X202472Y219649D01*
X202098Y219086D01*
X201910Y218149D01*
Y217587D01*
X202098Y216650D01*
X202472Y216087D01*
X203035Y215900D01*
X203410D01*
X203972Y216087D01*
X204347Y216650D01*
X204534Y217587D01*
Y218149D01*
X204347Y219086D01*
X203972Y219649D01*
X203410Y219836D01*
X203035D01*
X212900D02*
Y215900D01*
Y219836D02*
X214587D01*
X215149Y219649D01*
X215337Y219461D01*
X215524Y219086D01*
Y218711D01*
X215337Y218337D01*
X215149Y218149D01*
X214587Y217962D01*
X212900D01*
X214212D02*
X215524Y215900D01*
X216593Y218899D02*
Y219086D01*
X216780Y219461D01*
X216967Y219649D01*
X217342Y219836D01*
X218092D01*
X218467Y219649D01*
X218654Y219461D01*
X218842Y219086D01*
Y218711D01*
X218654Y218337D01*
X218279Y217774D01*
X216405Y215900D01*
X219029D01*
X222347Y218524D02*
X222159Y217962D01*
X221784Y217587D01*
X221222Y217400D01*
X221035D01*
X220472Y217587D01*
X220097Y217962D01*
X219910Y218524D01*
Y218711D01*
X220097Y219274D01*
X220472Y219649D01*
X221035Y219836D01*
X221222D01*
X221784Y219649D01*
X222159Y219274D01*
X222347Y218524D01*
Y217587D01*
X222159Y216650D01*
X221784Y216087D01*
X221222Y215900D01*
X220847D01*
X220285Y216087D01*
X220097Y216462D01*
X230900Y219836D02*
Y215900D01*
Y219836D02*
X232587D01*
X233149Y219649D01*
X233337Y219461D01*
X233524Y219086D01*
Y218711D01*
X233337Y218337D01*
X233149Y218149D01*
X232587Y217962D01*
X230900D01*
X232212D02*
X233524Y215900D01*
X234593Y218899D02*
Y219086D01*
X234780Y219461D01*
X234967Y219649D01*
X235342Y219836D01*
X236092D01*
X236467Y219649D01*
X236654Y219461D01*
X236842Y219086D01*
Y218711D01*
X236654Y218337D01*
X236279Y217774D01*
X234405Y215900D01*
X237029D01*
X238847Y219836D02*
X238285Y219649D01*
X238098Y219274D01*
Y218899D01*
X238285Y218524D01*
X238660Y218337D01*
X239410Y218149D01*
X239972Y217962D01*
X240347Y217587D01*
X240534Y217212D01*
Y216650D01*
X240347Y216275D01*
X240159Y216087D01*
X239597Y215900D01*
X238847D01*
X238285Y216087D01*
X238098Y216275D01*
X237910Y216650D01*
Y217212D01*
X238098Y217587D01*
X238472Y217962D01*
X239035Y218149D01*
X239785Y218337D01*
X240159Y218524D01*
X240347Y218899D01*
Y219274D01*
X240159Y219649D01*
X239597Y219836D01*
X238847D01*
X248900D02*
Y215900D01*
Y219836D02*
X250587D01*
X251149Y219649D01*
X251337Y219461D01*
X251524Y219086D01*
Y218711D01*
X251337Y218337D01*
X251149Y218149D01*
X250587Y217962D01*
X248900D01*
X250212D02*
X251524Y215900D01*
X252592Y218899D02*
Y219086D01*
X252780Y219461D01*
X252967Y219649D01*
X253342Y219836D01*
X254092D01*
X254467Y219649D01*
X254654Y219461D01*
X254842Y219086D01*
Y218711D01*
X254654Y218337D01*
X254279Y217774D01*
X252405Y215900D01*
X255029D01*
X258534Y219836D02*
X256660Y215900D01*
X255910Y219836D02*
X258534D01*
X266900D02*
Y215900D01*
Y219836D02*
X268587D01*
X269149Y219649D01*
X269337Y219461D01*
X269524Y219086D01*
Y218711D01*
X269337Y218337D01*
X269149Y218149D01*
X268587Y217962D01*
X266900D01*
X268212D02*
X269524Y215900D01*
X270592Y218899D02*
Y219086D01*
X270780Y219461D01*
X270967Y219649D01*
X271342Y219836D01*
X272092D01*
X272467Y219649D01*
X272654Y219461D01*
X272842Y219086D01*
Y218711D01*
X272654Y218337D01*
X272279Y217774D01*
X270405Y215900D01*
X273029D01*
X276159Y219274D02*
X275972Y219649D01*
X275410Y219836D01*
X275035D01*
X274472Y219649D01*
X274097Y219086D01*
X273910Y218149D01*
Y217212D01*
X274097Y216462D01*
X274472Y216087D01*
X275035Y215900D01*
X275222D01*
X275784Y216087D01*
X276159Y216462D01*
X276347Y217025D01*
Y217212D01*
X276159Y217774D01*
X275784Y218149D01*
X275222Y218337D01*
X275035D01*
X274472Y218149D01*
X274097Y217774D01*
X273910Y217212D01*
X284900Y219836D02*
Y215900D01*
Y219836D02*
X286587D01*
X287149Y219649D01*
X287337Y219461D01*
X287524Y219086D01*
Y218711D01*
X287337Y218337D01*
X287149Y218149D01*
X286587Y217962D01*
X284900D01*
X286212D02*
X287524Y215900D01*
X288593Y218899D02*
Y219086D01*
X288780Y219461D01*
X288967Y219649D01*
X289342Y219836D01*
X290092D01*
X290467Y219649D01*
X290654Y219461D01*
X290842Y219086D01*
Y218711D01*
X290654Y218337D01*
X290279Y217774D01*
X288405Y215900D01*
X291029D01*
X294159Y219836D02*
X292285D01*
X292097Y218149D01*
X292285Y218337D01*
X292847Y218524D01*
X293410D01*
X293972Y218337D01*
X294347Y217962D01*
X294534Y217400D01*
Y217025D01*
X294347Y216462D01*
X293972Y216087D01*
X293410Y215900D01*
X292847D01*
X292285Y216087D01*
X292097Y216275D01*
X291910Y216650D01*
X285350Y422386D02*
Y418450D01*
Y422386D02*
X287037D01*
X287599Y422199D01*
X287787Y422011D01*
X287974Y421636D01*
Y421262D01*
X287787Y420887D01*
X287599Y420699D01*
X287037Y420512D01*
X285350D01*
X286662D02*
X287974Y418450D01*
X289042Y421449D02*
Y421636D01*
X289230Y422011D01*
X289417Y422199D01*
X289792Y422386D01*
X290542D01*
X290917Y422199D01*
X291104Y422011D01*
X291292Y421636D01*
Y421262D01*
X291104Y420887D01*
X290729Y420324D01*
X288855Y418450D01*
X291479D01*
X294234Y422386D02*
X292360Y419762D01*
X295172D01*
X294234Y422386D02*
Y418450D01*
X267350Y422386D02*
Y418450D01*
Y422386D02*
X269037D01*
X269599Y422199D01*
X269787Y422011D01*
X269974Y421636D01*
Y421262D01*
X269787Y420887D01*
X269599Y420699D01*
X269037Y420512D01*
X267350D01*
X268662D02*
X269974Y418450D01*
X271042Y421449D02*
Y421636D01*
X271230Y422011D01*
X271417Y422199D01*
X271792Y422386D01*
X272542D01*
X272917Y422199D01*
X273104Y422011D01*
X273292Y421636D01*
Y421262D01*
X273104Y420887D01*
X272729Y420324D01*
X270855Y418450D01*
X273479D01*
X274735Y422386D02*
X276797D01*
X275672Y420887D01*
X276235D01*
X276609Y420699D01*
X276797Y420512D01*
X276984Y419949D01*
Y419575D01*
X276797Y419012D01*
X276422Y418637D01*
X275860Y418450D01*
X275297D01*
X274735Y418637D01*
X274548Y418825D01*
X274360Y419200D01*
X249350Y422386D02*
Y418450D01*
Y422386D02*
X251037D01*
X251599Y422199D01*
X251787Y422011D01*
X251974Y421636D01*
Y421262D01*
X251787Y420887D01*
X251599Y420699D01*
X251037Y420512D01*
X249350D01*
X250662D02*
X251974Y418450D01*
X253043Y421449D02*
Y421636D01*
X253230Y422011D01*
X253417Y422199D01*
X253792Y422386D01*
X254542D01*
X254917Y422199D01*
X255104Y422011D01*
X255292Y421636D01*
Y421262D01*
X255104Y420887D01*
X254729Y420324D01*
X252855Y418450D01*
X255479D01*
X256547Y421449D02*
Y421636D01*
X256735Y422011D01*
X256922Y422199D01*
X257297Y422386D01*
X258047D01*
X258422Y422199D01*
X258609Y422011D01*
X258797Y421636D01*
Y421262D01*
X258609Y420887D01*
X258235Y420324D01*
X256360Y418450D01*
X258984D01*
X231350Y422386D02*
Y418450D01*
Y422386D02*
X233037D01*
X233599Y422199D01*
X233787Y422011D01*
X233974Y421636D01*
Y421262D01*
X233787Y420887D01*
X233599Y420699D01*
X233037Y420512D01*
X231350D01*
X232662D02*
X233974Y418450D01*
X235043Y421449D02*
Y421636D01*
X235230Y422011D01*
X235417Y422199D01*
X235792Y422386D01*
X236542D01*
X236917Y422199D01*
X237104Y422011D01*
X237292Y421636D01*
Y421262D01*
X237104Y420887D01*
X236729Y420324D01*
X234855Y418450D01*
X237479D01*
X238360Y421636D02*
X238735Y421824D01*
X239297Y422386D01*
Y418450D01*
X213350Y422386D02*
Y418450D01*
Y422386D02*
X215037D01*
X215599Y422199D01*
X215787Y422011D01*
X215974Y421636D01*
Y421262D01*
X215787Y420887D01*
X215599Y420699D01*
X215037Y420512D01*
X213350D01*
X214662D02*
X215974Y418450D01*
X217042Y421449D02*
Y421636D01*
X217230Y422011D01*
X217417Y422199D01*
X217792Y422386D01*
X218542D01*
X218917Y422199D01*
X219104Y422011D01*
X219292Y421636D01*
Y421262D01*
X219104Y420887D01*
X218729Y420324D01*
X216855Y418450D01*
X219479D01*
X221485Y422386D02*
X220922Y422199D01*
X220548Y421636D01*
X220360Y420699D01*
Y420137D01*
X220548Y419200D01*
X220922Y418637D01*
X221485Y418450D01*
X221860D01*
X222422Y418637D01*
X222797Y419200D01*
X222984Y420137D01*
Y420699D01*
X222797Y421636D01*
X222422Y422199D01*
X221860Y422386D01*
X221485D01*
X195350D02*
Y418450D01*
Y422386D02*
X197037D01*
X197599Y422199D01*
X197787Y422011D01*
X197974Y421636D01*
Y421262D01*
X197787Y420887D01*
X197599Y420699D01*
X197037Y420512D01*
X195350D01*
X196662D02*
X197974Y418450D01*
X198855Y421636D02*
X199230Y421824D01*
X199792Y422386D01*
Y418450D01*
X204178Y421074D02*
X203991Y420512D01*
X203616Y420137D01*
X203054Y419949D01*
X202866D01*
X202304Y420137D01*
X201929Y420512D01*
X201742Y421074D01*
Y421262D01*
X201929Y421824D01*
X202304Y422199D01*
X202866Y422386D01*
X203054D01*
X203616Y422199D01*
X203991Y421824D01*
X204178Y421074D01*
Y420137D01*
X203991Y419200D01*
X203616Y418637D01*
X203054Y418450D01*
X202679D01*
X202116Y418637D01*
X201929Y419012D01*
X177350Y422386D02*
Y418450D01*
Y422386D02*
X179037D01*
X179599Y422199D01*
X179787Y422011D01*
X179974Y421636D01*
Y421262D01*
X179787Y420887D01*
X179599Y420699D01*
X179037Y420512D01*
X177350D01*
X178662D02*
X179974Y418450D01*
X180855Y421636D02*
X181230Y421824D01*
X181792Y422386D01*
Y418450D01*
X184679Y422386D02*
X184116Y422199D01*
X183929Y421824D01*
Y421449D01*
X184116Y421074D01*
X184491Y420887D01*
X185241Y420699D01*
X185803Y420512D01*
X186178Y420137D01*
X186366Y419762D01*
Y419200D01*
X186178Y418825D01*
X185991Y418637D01*
X185429Y418450D01*
X184679D01*
X184116Y418637D01*
X183929Y418825D01*
X183742Y419200D01*
Y419762D01*
X183929Y420137D01*
X184304Y420512D01*
X184866Y420699D01*
X185616Y420887D01*
X185991Y421074D01*
X186178Y421449D01*
Y421824D01*
X185991Y422199D01*
X185429Y422386D01*
X184679D01*
X159350D02*
Y418450D01*
Y422386D02*
X161037D01*
X161599Y422199D01*
X161787Y422011D01*
X161974Y421636D01*
Y421262D01*
X161787Y420887D01*
X161599Y420699D01*
X161037Y420512D01*
X159350D01*
X160662D02*
X161974Y418450D01*
X162855Y421636D02*
X163230Y421824D01*
X163792Y422386D01*
Y418450D01*
X168366Y422386D02*
X166491Y418450D01*
X165742Y422386D02*
X168366D01*
X14900Y219836D02*
Y215900D01*
Y219836D02*
X16587D01*
X17149Y219649D01*
X17337Y219461D01*
X17524Y219086D01*
Y218711D01*
X17337Y218337D01*
X17149Y218149D01*
X16587Y217962D01*
X14900D01*
X16212D02*
X17524Y215900D01*
X18405Y219086D02*
X18780Y219274D01*
X19342Y219836D01*
Y215900D01*
X23541Y219274D02*
X23353Y219649D01*
X22791Y219836D01*
X22416D01*
X21854Y219649D01*
X21479Y219086D01*
X21292Y218149D01*
Y217212D01*
X21479Y216462D01*
X21854Y216087D01*
X22416Y215900D01*
X22604D01*
X23166Y216087D01*
X23541Y216462D01*
X23728Y217025D01*
Y217212D01*
X23541Y217774D01*
X23166Y218149D01*
X22604Y218337D01*
X22416D01*
X21854Y218149D01*
X21479Y217774D01*
X21292Y217212D01*
X32900Y219836D02*
Y215900D01*
Y219836D02*
X34587D01*
X35149Y219649D01*
X35337Y219461D01*
X35524Y219086D01*
Y218711D01*
X35337Y218337D01*
X35149Y218149D01*
X34587Y217962D01*
X32900D01*
X34212D02*
X35524Y215900D01*
X36405Y219086D02*
X36780Y219274D01*
X37342Y219836D01*
Y215900D01*
X41541Y219836D02*
X39666D01*
X39479Y218149D01*
X39666Y218337D01*
X40229Y218524D01*
X40791D01*
X41353Y218337D01*
X41728Y217962D01*
X41916Y217400D01*
Y217025D01*
X41728Y216462D01*
X41353Y216087D01*
X40791Y215900D01*
X40229D01*
X39666Y216087D01*
X39479Y216275D01*
X39292Y216650D01*
X50900Y219836D02*
Y215900D01*
Y219836D02*
X52587D01*
X53149Y219649D01*
X53337Y219461D01*
X53524Y219086D01*
Y218711D01*
X53337Y218337D01*
X53149Y218149D01*
X52587Y217962D01*
X50900D01*
X52212D02*
X53524Y215900D01*
X54405Y219086D02*
X54780Y219274D01*
X55342Y219836D01*
Y215900D01*
X59166Y219836D02*
X57292Y217212D01*
X60103D01*
X59166Y219836D02*
Y215900D01*
X68900Y219836D02*
Y215900D01*
Y219836D02*
X70587D01*
X71149Y219649D01*
X71337Y219461D01*
X71524Y219086D01*
Y218711D01*
X71337Y218337D01*
X71149Y218149D01*
X70587Y217962D01*
X68900D01*
X70212D02*
X71524Y215900D01*
X72405Y219086D02*
X72780Y219274D01*
X73342Y219836D01*
Y215900D01*
X75666Y219836D02*
X77728D01*
X76604Y218337D01*
X77166D01*
X77541Y218149D01*
X77728Y217962D01*
X77916Y217400D01*
Y217025D01*
X77728Y216462D01*
X77353Y216087D01*
X76791Y215900D01*
X76229D01*
X75666Y216087D01*
X75479Y216275D01*
X75292Y216650D01*
X86900Y219836D02*
Y215900D01*
Y219836D02*
X88587D01*
X89149Y219649D01*
X89337Y219461D01*
X89524Y219086D01*
Y218711D01*
X89337Y218337D01*
X89149Y218149D01*
X88587Y217962D01*
X86900D01*
X88212D02*
X89524Y215900D01*
X90405Y219086D02*
X90780Y219274D01*
X91342Y219836D01*
Y215900D01*
X93479Y218899D02*
Y219086D01*
X93666Y219461D01*
X93854Y219649D01*
X94229Y219836D01*
X94978D01*
X95353Y219649D01*
X95541Y219461D01*
X95728Y219086D01*
Y218711D01*
X95541Y218337D01*
X95166Y217774D01*
X93292Y215900D01*
X95916D01*
X104900Y219836D02*
Y215900D01*
Y219836D02*
X106587D01*
X107149Y219649D01*
X107337Y219461D01*
X107524Y219086D01*
Y218711D01*
X107337Y218337D01*
X107149Y218149D01*
X106587Y217962D01*
X104900D01*
X106212D02*
X107524Y215900D01*
X108405Y219086D02*
X108780Y219274D01*
X109342Y219836D01*
Y215900D01*
X111292Y219086D02*
X111666Y219274D01*
X112229Y219836D01*
Y215900D01*
X122900Y219836D02*
Y215900D01*
Y219836D02*
X124587D01*
X125149Y219649D01*
X125337Y219461D01*
X125524Y219086D01*
Y218711D01*
X125337Y218337D01*
X125149Y218149D01*
X124587Y217962D01*
X122900D01*
X124212D02*
X125524Y215900D01*
X126405Y219086D02*
X126780Y219274D01*
X127342Y219836D01*
Y215900D01*
X130416Y219836D02*
X129854Y219649D01*
X129479Y219086D01*
X129292Y218149D01*
Y217587D01*
X129479Y216650D01*
X129854Y216087D01*
X130416Y215900D01*
X130791D01*
X131353Y216087D01*
X131728Y216650D01*
X131916Y217587D01*
Y218149D01*
X131728Y219086D01*
X131353Y219649D01*
X130791Y219836D01*
X130416D01*
X140900D02*
Y215900D01*
Y219836D02*
X142587D01*
X143149Y219649D01*
X143337Y219461D01*
X143524Y219086D01*
Y218711D01*
X143337Y218337D01*
X143149Y218149D01*
X142587Y217962D01*
X140900D01*
X142212D02*
X143524Y215900D01*
X146842Y218524D02*
X146654Y217962D01*
X146279Y217587D01*
X145717Y217400D01*
X145530D01*
X144967Y217587D01*
X144592Y217962D01*
X144405Y218524D01*
Y218711D01*
X144592Y219274D01*
X144967Y219649D01*
X145530Y219836D01*
X145717D01*
X146279Y219649D01*
X146654Y219274D01*
X146842Y218524D01*
Y217587D01*
X146654Y216650D01*
X146279Y216087D01*
X145717Y215900D01*
X145342D01*
X144780Y216087D01*
X144592Y216462D01*
X141350Y422386D02*
Y418450D01*
Y422386D02*
X143037D01*
X143599Y422199D01*
X143787Y422011D01*
X143974Y421636D01*
Y421262D01*
X143787Y420887D01*
X143599Y420699D01*
X143037Y420512D01*
X141350D01*
X142662D02*
X143974Y418450D01*
X145792Y422386D02*
X145230Y422199D01*
X145043Y421824D01*
Y421449D01*
X145230Y421074D01*
X145605Y420887D01*
X146354Y420699D01*
X146917Y420512D01*
X147292Y420137D01*
X147479Y419762D01*
Y419200D01*
X147292Y418825D01*
X147104Y418637D01*
X146542Y418450D01*
X145792D01*
X145230Y418637D01*
X145043Y418825D01*
X144855Y419200D01*
Y419762D01*
X145043Y420137D01*
X145417Y420512D01*
X145980Y420699D01*
X146729Y420887D01*
X147104Y421074D01*
X147292Y421449D01*
Y421824D01*
X147104Y422199D01*
X146542Y422386D01*
X145792D01*
X123350D02*
Y418450D01*
Y422386D02*
X125037D01*
X125599Y422199D01*
X125787Y422011D01*
X125974Y421636D01*
Y421262D01*
X125787Y420887D01*
X125599Y420699D01*
X125037Y420512D01*
X123350D01*
X124662D02*
X125974Y418450D01*
X129479Y422386D02*
X127605Y418450D01*
X126855Y422386D02*
X129479D01*
X105350D02*
Y418450D01*
Y422386D02*
X107037D01*
X107599Y422199D01*
X107787Y422011D01*
X107974Y421636D01*
Y421262D01*
X107787Y420887D01*
X107599Y420699D01*
X107037Y420512D01*
X105350D01*
X106662D02*
X107974Y418450D01*
X111104Y421824D02*
X110917Y422199D01*
X110354Y422386D01*
X109980D01*
X109417Y422199D01*
X109043Y421636D01*
X108855Y420699D01*
Y419762D01*
X109043Y419012D01*
X109417Y418637D01*
X109980Y418450D01*
X110167D01*
X110729Y418637D01*
X111104Y419012D01*
X111292Y419575D01*
Y419762D01*
X111104Y420324D01*
X110729Y420699D01*
X110167Y420887D01*
X109980D01*
X109417Y420699D01*
X109043Y420324D01*
X108855Y419762D01*
X87350Y422386D02*
Y418450D01*
Y422386D02*
X89037D01*
X89599Y422199D01*
X89787Y422011D01*
X89974Y421636D01*
Y421262D01*
X89787Y420887D01*
X89599Y420699D01*
X89037Y420512D01*
X87350D01*
X88662D02*
X89974Y418450D01*
X93104Y422386D02*
X91230D01*
X91043Y420699D01*
X91230Y420887D01*
X91792Y421074D01*
X92355D01*
X92917Y420887D01*
X93292Y420512D01*
X93479Y419949D01*
Y419575D01*
X93292Y419012D01*
X92917Y418637D01*
X92355Y418450D01*
X91792D01*
X91230Y418637D01*
X91043Y418825D01*
X90855Y419200D01*
X69350Y422386D02*
Y418450D01*
Y422386D02*
X71037D01*
X71599Y422199D01*
X71787Y422011D01*
X71974Y421636D01*
Y421262D01*
X71787Y420887D01*
X71599Y420699D01*
X71037Y420512D01*
X69350D01*
X70662D02*
X71974Y418450D01*
X74729Y422386D02*
X72855Y419762D01*
X75667D01*
X74729Y422386D02*
Y418450D01*
X51350Y422386D02*
Y418450D01*
Y422386D02*
X53037D01*
X53599Y422199D01*
X53787Y422011D01*
X53974Y421636D01*
Y421262D01*
X53787Y420887D01*
X53599Y420699D01*
X53037Y420512D01*
X51350D01*
X52662D02*
X53974Y418450D01*
X55230Y422386D02*
X57292D01*
X56167Y420887D01*
X56729D01*
X57104Y420699D01*
X57292Y420512D01*
X57479Y419949D01*
Y419575D01*
X57292Y419012D01*
X56917Y418637D01*
X56354Y418450D01*
X55792D01*
X55230Y418637D01*
X55042Y418825D01*
X54855Y419200D01*
X33350Y422386D02*
Y418450D01*
Y422386D02*
X35037D01*
X35599Y422199D01*
X35787Y422011D01*
X35974Y421636D01*
Y421262D01*
X35787Y420887D01*
X35599Y420699D01*
X35037Y420512D01*
X33350D01*
X34662D02*
X35974Y418450D01*
X37042Y421449D02*
Y421636D01*
X37230Y422011D01*
X37417Y422199D01*
X37792Y422386D01*
X38542D01*
X38917Y422199D01*
X39104Y422011D01*
X39292Y421636D01*
Y421262D01*
X39104Y420887D01*
X38729Y420324D01*
X36855Y418450D01*
X39479D01*
X15350Y422386D02*
Y418450D01*
Y422386D02*
X17037D01*
X17599Y422199D01*
X17787Y422011D01*
X17974Y421636D01*
Y421262D01*
X17787Y420887D01*
X17599Y420699D01*
X17037Y420512D01*
X15350D01*
X16662D02*
X17974Y418450D01*
X18855Y421636D02*
X19230Y421824D01*
X19792Y422386D01*
Y418450D01*
X239900Y29574D02*
X241587D01*
X242149Y29762D01*
X242337Y29949D01*
X242524Y30324D01*
Y30886D01*
X242337Y31261D01*
X242149Y31449D01*
X241587Y31636D01*
X239900D01*
Y27700D01*
X243405Y30886D02*
X243780Y31074D01*
X244342Y31636D01*
Y27700D01*
X247416Y31636D02*
X246854Y31449D01*
X246479Y30886D01*
X246292Y29949D01*
Y29387D01*
X246479Y28450D01*
X246854Y27887D01*
X247416Y27700D01*
X247791D01*
X248353Y27887D01*
X248728Y28450D01*
X248916Y29387D01*
Y29949D01*
X248728Y30886D01*
X248353Y31449D01*
X247791Y31636D01*
X247416D01*
X15900Y367574D02*
X17587D01*
X18149Y367762D01*
X18337Y367949D01*
X18524Y368324D01*
Y368886D01*
X18337Y369261D01*
X18149Y369449D01*
X17587Y369636D01*
X15900D01*
Y365700D01*
X21842Y368324D02*
X21654Y367762D01*
X21279Y367387D01*
X20717Y367199D01*
X20530D01*
X19967Y367387D01*
X19592Y367762D01*
X19405Y368324D01*
Y368512D01*
X19592Y369074D01*
X19967Y369449D01*
X20530Y369636D01*
X20717D01*
X21279Y369449D01*
X21654Y369074D01*
X21842Y368324D01*
Y367387D01*
X21654Y366450D01*
X21279Y365887D01*
X20717Y365700D01*
X20342D01*
X19780Y365887D01*
X19592Y366262D01*
X501400Y162574D02*
X503087D01*
X503649Y162762D01*
X503837Y162949D01*
X504024Y163324D01*
Y163886D01*
X503837Y164261D01*
X503649Y164449D01*
X503087Y164636D01*
X501400D01*
Y160700D01*
X505842Y164636D02*
X505280Y164449D01*
X505092Y164074D01*
Y163699D01*
X505280Y163324D01*
X505655Y163137D01*
X506404Y162949D01*
X506967Y162762D01*
X507342Y162387D01*
X507529Y162012D01*
Y161450D01*
X507342Y161075D01*
X507154Y160887D01*
X506592Y160700D01*
X505842D01*
X505280Y160887D01*
X505092Y161075D01*
X504905Y161450D01*
Y162012D01*
X505092Y162387D01*
X505467Y162762D01*
X506030Y162949D01*
X506779Y163137D01*
X507154Y163324D01*
X507342Y163699D01*
Y164074D01*
X507154Y164449D01*
X506592Y164636D01*
X505842D01*
X501900Y444568D02*
X503587D01*
X504149Y444756D01*
X504337Y444943D01*
X504524Y445318D01*
Y445880D01*
X504337Y446255D01*
X504149Y446442D01*
X503587Y446630D01*
X501900D01*
Y442694D01*
X508029Y446630D02*
X506155Y442694D01*
X505405Y446630D02*
X508029D01*
X344233Y162574D02*
X345920D01*
X346482Y162762D01*
X346670Y162949D01*
X346857Y163324D01*
Y163886D01*
X346670Y164261D01*
X346482Y164449D01*
X345920Y164636D01*
X344233D01*
Y160700D01*
X349988Y164074D02*
X349800Y164449D01*
X349238Y164636D01*
X348863D01*
X348301Y164449D01*
X347926Y163886D01*
X347738Y162949D01*
Y162012D01*
X347926Y161262D01*
X348301Y160887D01*
X348863Y160700D01*
X349050D01*
X349613Y160887D01*
X349988Y161262D01*
X350175Y161825D01*
Y162012D01*
X349988Y162574D01*
X349613Y162949D01*
X349050Y163137D01*
X348863D01*
X348301Y162949D01*
X347926Y162574D01*
X347738Y162012D01*
X339400Y444568D02*
X341087D01*
X341649Y444756D01*
X341837Y444943D01*
X342024Y445318D01*
Y445880D01*
X341837Y446255D01*
X341649Y446442D01*
X341087Y446630D01*
X339400D01*
Y442694D01*
X345154Y446630D02*
X343280D01*
X343092Y444943D01*
X343280Y445130D01*
X343842Y445318D01*
X344405D01*
X344967Y445130D01*
X345342Y444756D01*
X345529Y444193D01*
Y443818D01*
X345342Y443256D01*
X344967Y442881D01*
X344405Y442694D01*
X343842D01*
X343280Y442881D01*
X343092Y443069D01*
X342905Y443443D01*
X187067Y162574D02*
X188754D01*
X189316Y162762D01*
X189503Y162949D01*
X189691Y163324D01*
Y163886D01*
X189503Y164261D01*
X189316Y164449D01*
X188754Y164636D01*
X187067D01*
Y160700D01*
X192446Y164636D02*
X190572Y162012D01*
X193383D01*
X192446Y164636D02*
Y160700D01*
X176900Y444574D02*
X178587D01*
X179149Y444762D01*
X179337Y444949D01*
X179524Y445324D01*
Y445886D01*
X179337Y446261D01*
X179149Y446449D01*
X178587Y446636D01*
X176900D01*
Y442700D01*
X180780Y446636D02*
X182842D01*
X181717Y445137D01*
X182279D01*
X182654Y444949D01*
X182842Y444762D01*
X183029Y444200D01*
Y443825D01*
X182842Y443262D01*
X182467Y442887D01*
X181904Y442700D01*
X181342D01*
X180780Y442887D01*
X180593Y443075D01*
X180405Y443450D01*
X29900Y162574D02*
X31587D01*
X32149Y162762D01*
X32337Y162949D01*
X32524Y163324D01*
Y163886D01*
X32337Y164261D01*
X32149Y164449D01*
X31587Y164636D01*
X29900D01*
Y160700D01*
X33593Y163699D02*
Y163886D01*
X33780Y164261D01*
X33967Y164449D01*
X34342Y164636D01*
X35092D01*
X35467Y164449D01*
X35654Y164261D01*
X35842Y163886D01*
Y163512D01*
X35654Y163137D01*
X35279Y162574D01*
X33405Y160700D01*
X36029D01*
X14400Y444574D02*
X16087D01*
X16649Y444762D01*
X16837Y444949D01*
X17024Y445324D01*
Y445886D01*
X16837Y446261D01*
X16649Y446449D01*
X16087Y446636D01*
X14400D01*
Y442700D01*
X17905Y445886D02*
X18280Y446074D01*
X18842Y446636D01*
Y442700D01*
D12*
X608503Y64416D02*
G03*
X603063Y73122I-10260J-358D01*
G01*
Y55878D02*
G03*
X608503Y64584I-4820J9065D01*
G01*
X527646Y64416D02*
G03*
X522206Y73122I-10260J-358D01*
G01*
Y55878D02*
G03*
X527646Y64584I-4820J9065D01*
G01*
X446789Y64416D02*
G03*
X441349Y73122I-10260J-358D01*
G01*
Y55878D02*
G03*
X446789Y64584I-4820J9065D01*
G01*
X365932Y64416D02*
G03*
X360491Y73122I-10260J-358D01*
G01*
Y55878D02*
G03*
X365932Y64584I-4820J9065D01*
G01*
X285075Y64416D02*
G03*
X279634Y73122I-10260J-358D01*
G01*
Y55878D02*
G03*
X285075Y64584I-4820J9065D01*
G01*
X204218Y64416D02*
G03*
X198777Y73122I-10260J-358D01*
G01*
Y55878D02*
G03*
X204218Y64584I-4820J9065D01*
G01*
X123360Y64416D02*
G03*
X117920Y73122I-10260J-358D01*
G01*
Y55878D02*
G03*
X123360Y64584I-4820J9065D01*
G01*
X42503Y64416D02*
G03*
X37063Y73122I-10260J-358D01*
G01*
Y55878D02*
G03*
X42503Y64584I-4820J9065D01*
G01*
X608503Y100916D02*
G03*
X603063Y109622I-10260J-358D01*
G01*
Y92378D02*
G03*
X608503Y101084I-4820J9065D01*
G01*
X527718Y100916D02*
G03*
X522277Y109622I-10260J-358D01*
G01*
Y92378D02*
G03*
X527718Y101084I-4820J9065D01*
G01*
X446932Y100916D02*
G03*
X441491Y109622I-10260J-358D01*
G01*
Y92378D02*
G03*
X446932Y101084I-4820J9065D01*
G01*
X366146Y100916D02*
G03*
X360706Y109622I-10260J-358D01*
G01*
Y92378D02*
G03*
X366146Y101084I-4820J9065D01*
G01*
X285360Y100916D02*
G03*
X279920Y109622I-10260J-358D01*
G01*
Y92378D02*
G03*
X285360Y101084I-4820J9065D01*
G01*
X204575Y100916D02*
G03*
X199134Y109622I-10260J-358D01*
G01*
Y92378D02*
G03*
X204575Y101084I-4820J9065D01*
G01*
X123789Y100916D02*
G03*
X118349Y109622I-10260J-358D01*
G01*
Y92378D02*
G03*
X123789Y101084I-4820J9065D01*
G01*
X42503Y100916D02*
G03*
X37063Y109622I-10260J-358D01*
G01*
Y92378D02*
G03*
X42503Y101084I-4820J9065D01*
G01*
X594327Y55445D02*
Y73555D01*
X513470Y55445D02*
Y73555D01*
X432612Y55445D02*
Y73555D01*
X351755Y55445D02*
Y73555D01*
X270898Y55445D02*
Y73555D01*
X190041Y55445D02*
Y73555D01*
X109184Y55445D02*
Y73555D01*
X28327Y55445D02*
Y73555D01*
X594327Y91945D02*
Y110055D01*
X513541Y91945D02*
Y110055D01*
X432755Y91945D02*
Y110055D01*
X351970Y91945D02*
Y110055D01*
X271184Y91945D02*
Y110055D01*
X190398Y91945D02*
Y110055D01*
X109613Y91945D02*
Y110055D01*
X28327Y91945D02*
Y110055D01*
M02*
