M48
;Layer_Color=9474304
;FILE_FORMAT=2:5
INCH,LZ
;TYPE=PLATED
T1F00S00C0.02800
T2F00S00C0.03110
T3F00S00C0.03346
T4F00S00C0.03543
T5F00S00C0.04400
%
T01
X0591Y0242
X0638Y02425
Y02345
X06475
Y02425
X06585Y0193
X0674
X04875Y02515
X0053Y03055
X0068
X0086Y02995
X01005Y03055
X01135Y0312
Y03205
X0094Y03215
X00865
X0128Y0312
X01225Y02685
X0103
X0201Y0305
Y03125
Y0321
X017Y03675
X0156
X02225Y0321
Y031
X02155Y03045
X02325Y03265
X02515Y0321
X0251667Y03125
X0265Y0305
X02655Y0321
X03085Y03205
X0308Y03115
Y03045
X03185Y03205
X03175Y03585
X0301
X03615Y03205
X03695
X03635Y0307
X03545
X0371Y02945
X0271Y02675
X0251
X0398833Y0268
X0418
X04145Y03075
X0426
X03865Y03125
Y03205
X0378833Y02985
X04695Y03125
Y03205
X0479
X04815Y03125
X0494Y0321
X05055Y03295
X052Y03205
Y0312
X05115Y0311
X0519Y02995
X04975Y027
X0481
X0489Y0346
X04955
X0452Y03575
X0435Y03515
X04295Y0356
X04345Y03665
X05465Y02935
Y02855
X05615Y02895
X0573
X05905Y027
Y02625
T02
X0033327Y00545
Y00645
Y00745
Y0091
Y0101
X0114612
Y0091
X0114184Y00745
Y00645
Y00545
X0195041
Y00645
Y00745
X0195398Y0091
Y0101
X0276184
Y0091
X0275898Y00745
Y00645
Y00545
X0356755
Y00645
Y00745
X035697Y0091
Y0101
X0437755
Y0091
X0437612Y00745
Y00645
Y00545
X0518469
Y00645
Y00745
X0518541Y0091
Y0101
X0599327
Y0091
X0599327Y00745
Y00645
Y00545
X0599327Y0111
X0518541
X0437755
X035697
X0276184
X0195398
X0114612
X0033327
T03
X05395Y018
X05575
X05755
Y021
X05575
X05395
X05215
X05035
X04855
X04675
X04495
X04315
X04135
X03955
X03775
Y018
X03955
X04135
X04315
X04495
X04675
X04855
X05035
X05215
X03595
X03415
X03235
X03055
X02875
X02695
X02515
X02335
X02155
Y021
X02335
X02515
X02695
X02875
X03055
X03235
X03415
X03595
X01975
X01795
X01615
X01435
X01255
X01075
X00895
X00715
Y018
X00895
X01075
X01255
X01435
X01615
X01795
X01975
X00535
X00355
X00175
Y021
X00355
X00535
X0054Y03825
X0036
X0018
Y04125
X0036
X0054
X0072
X009
X0108
X0126
X0144
X0162
X018
X0198
Y03825
X018
X0162
X0144
X0126
X0108
X009
X0072
X0216
X0234
X0252
X027
X0288
X0306
X0324
X0342
X036
Y04125
X0342
X0324
X0306
X0288
X027
X0252
X0234
X0216
X0378
X0396
X0414
X0432
X045
X0468
X0486
X0504
X0522
Y03825
X0504
X0486
X0468
X045
X0432
X0414
X0396
X0378
X054
X0558
X0576
Y04125
X0558
X054
T04
X02445Y00195
X02545
X02645
X02745
X02845
X02945
X03045
X03145
X0536Y01525
X0546
X0556
X0566
X0576
X0526
X0516
X0506
X0418833
X0408833
X0398833
X0388833
X0378833
X0368833
X0358833
X0348833
X0261667
X0251667
X0241667
X0231667
X0221667
X0211667
X0201667
X0191667
X01045
X00945
X00845
X00745
X00645
X00545
X00445
X00345
X00205Y03375
Y03475
Y03575
X05365Y04345
X05465
X05565
X05665
X05765
X05265
X05165
X05065
X0414
X0404
X0394
X0384
X0374
X0364
X0354
X0344
X02515
X02415
X02315
X02215
X02115
X02015
X01915
X01815
X0089
X0079
X0069
X0059
X0049
X0039
X0029
X0019
T05
X0693Y0179
X0703
Y0209
X0693
X0683
X0673
X0663
X0653
X0643
X0633
Y0179
X0643
X0653
X0663
X0673
X0683
X0567Y0247
X0557
X0547
X0537
X0527
X0517
X0507
X0497
X0419
X0409
X0399
X0389
X0379
X0369
X0359
X0349
X0271Y0247
X0261
X0251
X0241
X0231
X0221
X0211
X0201
X0123Y0247
X0113
X0103
X0093
X0083
X0073
X0063
X0053
Y0277
X0049Y03375
Y03675
X0059
X0069
X0079
X0089
X0099
X0109
X0119
Y03375
X0109
X0099
X0089
X0079
X0069
X0059
X0063Y0277
X0073
X0083
X0093
X0103
X0113
X0123
X0201Y0277
X0211
X02125Y03375
X02025
X01925
X01825
Y03675
X01925
X02025
X02125
X02225
X02325
X02425
X02525
Y03375
X02425
X02325
X02225
X0221Y0277
X0231
X0241
X0251
X0261
X0271
X0349Y0277
X0359
X0369
X0366Y03375
X0356
X0346
X0336
X0326
X0316
Y03675
X0326
X0336
X0346
X0356
X0366
X0376
X0386
Y03375
X0376
X0379Y0277
X0389
X0399
X0409
X0419
X0497
X0507
X0517
X0527
X05195Y03385
X05095
X04995
X04895
X04795
X04695
X04595
X04495
Y03685
X04595
X04695
X04795
X04895
X04995
X05095
X05195
X0537Y0277
X0547
X0557
X0567
M30
